<?xml version="1.0" encoding="utf-8"?>
<svg xmlns="http://www.w3.org/2000/svg" id="Capa_3" style="enable-background:new 0 0 800 458;" version="1.1" viewBox="0 0 800 458" x="0px" y="0px">
<style type="text/css">
	.st0{fill:#E3F4F3;}
	.st1{fill:none;stroke:#272B36;stroke-miterlimit:10;}
	.st2{fill:none;}
	.st3{fill:#5B8F89;}
	.st4{fill:#7DC69F;}
	.st5{fill:#3B5B75;}
	.st6{fill:#45C8A0;}
	.st7{fill:#33918B;}
	.st8{opacity:0.15;fill:#FFFFFF;enable-background:new    ;}
	.st9{fill:none;stroke:#31333A;stroke-miterlimit:10;}
	.st10{fill:none;stroke:#2C2F38;stroke-miterlimit:10;}
	.st11{fill:#805D40;}
	.st12{fill:#F7BF5C;}
	.st13{fill:#F7F7F7;}
	.st14{fill:#215B77;}
	.st15{fill:#8D99A9;}
	.st16{fill:#CBA278;}
	.st17{opacity:0.15;fill:#FFFFFF;}
	.st18{fill:#FFFFFF;}
	.st19{opacity:0.15;}
	.st20{fill:none;stroke:#272B36;stroke-width:1.2;stroke-miterlimit:10;}
	.st21{fill:#33918B;stroke:#272B36;stroke-miterlimit:10;}
	.st22{fill:#272B36;}
</style>
<g>
	<path class="st0" d="M712.79,260.49c1.14,25.15-2.59,50.97-14.12,73.07c-16.73,32.03-48,53.14-80.12,68.09&#xD;&#xA;		C568.52,424.98,512.21,434.2,458,424.61c-41.23-7.3-95.45-1.78-149.46,8.84C157.47,463.11,36.46,300.14,108.27,159.98&#xD;&#xA;		c24.68-48.17,66.41-82.52,134.78-84.89c38.72-1.34,50.68,15.99,76.09,11.64c27.5-4.73,46.9-29.38,70.17-45.21&#xD;&#xA;		c28.1-19.03,64.06-25.3,96.72-16.79c14.3,3.73,28.34,10.43,38.15,21.85c8.92,10.33,13.83,23.93,23.16,33.89&#xD;&#xA;		c15.91,17.04,40.77,20,62.39,27.75C669.87,129.71,709.78,194.88,712.79,260.49z"/>
</g>
<line class="st1" x1="89.93" x2="710.07" y1="382.39" y2="382.39"/>
<g>
	<path class="st2" d="M240.64,207.38c1.07,1.5,2.17,2.97,3.29,4.41c3.99,5.05,8.4,9.75,12.84,14.38c0.37,0.4,0.77,0.79,1.16,1.21&#xD;&#xA;		c4.29,4.42,8.65,8.85,13.31,12.91c3.35,2.95,6.85,5.7,10.54,8.16"/>
	<path class="st2" d="M268.99,222.05c-0.38,3.84,0.07,7.77,0.74,11.59c0.4,2.22,0.85,4.48,1.52,6.62"/>
	<path class="st2" d="M245.25,225.07c0.31-0.08,0.61-0.12,0.93-0.17c3.57-0.47,7.23-0.01,10.58,1.25"/>
	<path class="st3" d="M310.43,350.72c-0.39-0.46-0.8-0.91-1.24-1.35c-0.31-0.31-0.65-0.63-0.98-0.9c-0.18-0.16-0.36-0.31-0.53-0.45&#xD;&#xA;		c-0.09-0.1-0.2-0.16-0.29-0.23c-0.25-0.2-0.5-0.39-0.75-0.56c-0.19-0.15-0.41-0.29-0.61-0.42c-0.62-0.44-1.29-0.82-1.97-1.17&#xD;&#xA;		c-0.54-0.26-1.09-0.53-1.64-0.75c-0.14-0.07-0.29-0.11-0.43-0.18c-0.14-0.07-0.28-0.11-0.42-0.16c-1.13-0.41-2.32-0.73-3.53-0.92&#xD;&#xA;		c-0.73-0.13-1.43-0.21-2.14-0.26c-0.95-0.06-1.89-0.07-2.85-0.02c-0.47,0.03-0.96,0.06-1.43,0.11c-2.44,0.22-4.87,0.75-7.33,1.39&#xD;&#xA;		c-0.88,0.22-1.75,0.46-2.64,0.72c-0.96,0.27-1.9,0.55-2.86,0.82c-1.44,0.42-2.88,0.82-4.31,1.15c-0.48,0.13-0.94,0.25-1.41,0.35&#xD;&#xA;		c-2.08,0.44-4.13,0.79-6.23,0.9c-6.53,0.35-12.94-1.49-19.24-3.3l-0.02,0c0.1,1.35,0.26,2.7,0.51,4.05&#xD;&#xA;		c0.11,0.69,0.25,1.35,0.39,2.02c0.46,2.06,1.07,4.09,1.82,6.07c0.16,0.4,0.32,0.8,0.48,1.2c0.12,0.29,0.24,0.6,0.39,0.89&#xD;&#xA;		c0.23,0.5,0.45,1.01,0.7,1.52c1.79,3.68,4.15,7.1,6.93,10.1c5.57,5.99,12.92,10.31,20.85,12.26c0.01,0,0.01,0,0.03,0&#xD;&#xA;		c1.36,0.34,2.71,0.62,4.09,0.81c2.5,0.36,5.06,0.5,7.53,0.11c0.02-0.01,0.02-0.01,0.04-0.01c0.59-0.09,1.16-0.2,1.73-0.35&#xD;&#xA;		c0.28-0.07,0.58-0.15,0.88-0.24c0.59-0.16,1.17-0.35,1.75-0.53c0.56-0.18,1.12-0.39,1.67-0.61c0.29-0.11,0.56-0.2,0.85-0.32&#xD;&#xA;		c0.15-0.06,0.31-0.1,0.46-0.15c0.15-0.06,0.31-0.13,0.44-0.17c-1.27-5.01-1.33-10.31,0.05-15.35&#xD;&#xA;		C300.95,360.34,305.07,354.72,310.43,350.72z"/>
	<path class="st4" d="M279.41,390.85c-0.7-2.34-0.58-4.9,0.22-7.2c0-0.01,0-0.01,0.01-0.02c1.38,0.33,2.73,0.62,4.11,0.81&#xD;&#xA;		c0.29,0.04,0.59,0.08,0.88,0.12c0.02,0,0.04,0,0.05,0s0.01,0,0.01,0c1.12,0.13,2.24,0.21,3.35,0.21c0.46,0,0.91-0.01,1.37-0.04&#xD;&#xA;		l0.01,0c0.62-0.03,1.24-0.09,1.85-0.19c0.02-0.02,0.02-0.02,0.03-0.02c0.59-0.09,1.17-0.2,1.74-0.35c0.29-0.08,0.59-0.16,0.88-0.25&#xD;&#xA;		c0.59-0.16,1.17-0.35,1.75-0.53c0.56-0.19,1.12-0.4,1.68-0.62c0.31-0.08,0.6-0.2,0.89-0.31c0.13-0.05,0.29-0.11,0.42-0.16&#xD;&#xA;		c0.08-0.04,0.16-0.07,0.24-0.1l0.24-0.08c0,0.01,0,0.04,0.02,0.05c0.1,0.41,0.21,0.82,0.33,1.22c0.01,0.04,0.02,0.08,0.03,0.12&#xD;&#xA;		c0.02,0.07,0.05,0.13,0.06,0.2c0.14,0.42,0.27,0.85,0.42,1.27c0.16,0.46,0.34,0.92,0.53,1.37c0.18,0.46,0.38,0.9,0.59,1.35&#xD;&#xA;		l-3.21,6.52c-0.27,0.25-0.55,0.5-0.81,0.75l-5.29-0.37l-11.01-0.76l-0.04,0C280.17,392.93,279.72,391.92,279.41,390.85z"/>
	<path class="st2" d="M283.79,384.4c-1.42-0.2-2.77-0.47-4.14-0.81l0,0.02c1.36,0.34,2.71,0.62,4.09,0.81&#xD;&#xA;		c2.5,0.36,5.06,0.5,7.53,0.11C288.82,384.91,286.27,384.77,283.79,384.4z"/>
	<path class="st5" d="M318.72,334.79c-1.99-3.03-5.65-4.94-9.24-4.66c-4.8,0.4-8.56,4.09-12.72,6.45c-1.9,1.09-4.02,1.94-6.17,1.83&#xD;&#xA;		c-2.19-0.08-4.43-1.24-5.28-3.24c-0.23-0.53-0.32-1.06-0.34-1.59c-0.03-0.47,0.03-0.96,0.13-1.42c0.5-2.05,2.21-3.94,4.21-4.9&#xD;&#xA;		c2.31-1.08,5.19-1.39,6.79-3.35c0.18-0.21,0.33-0.46,0.46-0.7c0.11-0.22,0.22-0.42,0.28-0.62c0.1-0.24,0.17-0.5,0.22-0.74&#xD;&#xA;		c0.36-1.72-0.12-3.67-1.25-5.06c-1.61-2.01-4.23-3.01-6.75-3.22c-2.41-0.23-4.94,0.24-6.87,1.72c-1.45,1.1-2.44,2.71-3.73,4.05&#xD;&#xA;		c-3.28,3.4-8.61,4.62-13.02,2.95c-3.88-1.51-6.78-5.25-7.31-9.34c-0.09-0.56-0.13-1.14-0.11-1.7c0.01-0.42,0.05-0.83,0.14-1.24&#xD;&#xA;		c0.11-0.83,0.33-1.63,0.67-2.4c1.33-3.19,4.12-5.81,7.49-6.62c2.49-0.59,5.48-0.52,7.62-1.54c-0.04,0-0.06-0.02-0.09-0.02&#xD;&#xA;		c-1.67-0.62-3.36-1.19-5.09-1.7c-5.65-1.69-11.51-2.81-17.41-3.16c-0.62,0.32-1.23,0.59-1.9,0.77c-1.75,0.46-3.63,0.02-5.28-0.85&#xD;&#xA;		l-0.02,0c-5.31,0.19-10.58,1.01-15.68,2.55c-4.22,1.29-8.63,3.35-10.56,7.32c-1.46,2.98-1.17,6.68,0.14,9.82&#xD;&#xA;		c1.32,3.13,3.57,5.79,5.92,8.24c2.96,3.09,6.13,5.95,9.52,8.53c-0.01,0.02,0.01,0.02,0.01,0.02c1.43,1.1,2.9,2.15,4.41,3.16&#xD;&#xA;		c0.75,0.48,1.53,0.99,2.31,1.47c2.29,1.46,4.66,2.78,7.08,3.99c8.1,4.08,16.81,6.9,25.76,8.28l0.02,0&#xD;&#xA;		c0.48-0.11,0.95-0.21,1.41-0.33c1.46-0.35,2.9-0.75,4.31-1.15c0.96-0.27,1.9-0.55,2.86-0.82c0.87-0.26,1.76-0.49,2.64-0.72&#xD;&#xA;		c2.45-0.65,4.89-1.17,7.33-1.39c0.47-0.05,0.97-0.08,1.43-0.11c0.96-0.05,1.9-0.04,2.85,0.02c0.71,0.05,1.41,0.12,2.12,0.24&#xD;&#xA;		c1.2,0.21,2.38,0.53,3.54,0.94c0.14,0.05,0.28,0.09,0.42,0.16c0.14,0.05,0.29,0.1,0.43,0.18c0.56,0.21,1.11,0.47,1.64,0.75&#xD;&#xA;		c0.66,0.35,1.34,0.73,1.97,1.17c0.21,0.12,0.41,0.26,0.61,0.42c0.25,0.17,0.5,0.36,0.75,0.56c0.09,0.07,0.2,0.13,0.29,0.23&#xD;&#xA;		c0.18,0.12,0.36,0.27,0.53,0.45c0.33,0.28,0.67,0.6,0.98,0.9c0.44,0.45,0.86,0.89,1.24,1.35c1.97-1.48,4.09-2.74,6.35-3.72l0-0.02&#xD;&#xA;		C316.7,342.86,317.36,338.73,318.72,334.79z"/>
	<path class="st5" d="M329.04,317.7c0,0,0,0,0-0.01c0.2-0.46,0.43-0.89,0.69-1.35c0.49-0.88,1.07-1.75,1.69-2.55&#xD;&#xA;		c0.17-0.21,0.33-0.43,0.51-0.64c0.15-0.19,0.3-0.39,0.45-0.57c0.15-0.19,0.3-0.39,0.45-0.58c0.31-0.38,0.61-0.78,0.89-1.17&#xD;&#xA;		c0.15-0.19,0.28-0.4,0.43-0.59c0.27-0.39,0.52-0.81,0.76-1.21c0.11-0.22,0.22-0.42,0.32-0.63c0.44-0.89,0.77-1.83,0.91-2.82&#xD;&#xA;		c0.35-2.32-0.93-4.99-2.88-5.99c-0.15-0.06-0.29-0.13-0.44-0.17c-0.58-0.23-1.21-0.3-1.89-0.15c-2.34,0.5-3.63,3.04-5.64,4.36&#xD;&#xA;		c-0.13,0.09-0.28,0.18-0.41,0.24c-0.06,0.04-0.13,0.07-0.2,0.09c-0.07,0.05-0.15,0.07-0.22,0.1c-0.14,0.05-0.28,0.11-0.43,0.15&#xD;&#xA;		l0,0.01c-0.15,0.05-0.3,0.09-0.46,0.12c-0.07,0.02-0.13,0.04-0.2,0.04c-0.01,0-0.03,0.01-0.04,0c-0.08,0.03-0.15,0.04-0.22,0.05&#xD;&#xA;		c-0.13,0.02-0.26,0.04-0.38,0.03c-0.2,0.02-0.4,0.02-0.6,0.03c-0.13,0.01-0.25,0-0.37-0.02c-0.09,0-0.18,0-0.27-0.01&#xD;&#xA;		c-0.05,0-0.12-0.01-0.17-0.03c-0.06-0.01-0.12-0.01-0.17-0.03c-0.11-0.01-0.21-0.03-0.31-0.04c-0.03,0.01-0.05,0-0.08-0.02&#xD;&#xA;		c-0.06-0.01-0.12-0.03-0.18-0.04c-0.04,0-0.08,0-0.11-0.02c-0.19-0.04-0.39-0.1-0.57-0.17c-0.18-0.07-0.39-0.15-0.56-0.23&#xD;&#xA;		c-0.36-0.17-0.72-0.37-1.07-0.57c0,0,0-0.02-0.02-0.02c-0.33-0.25-0.66-0.52-0.94-0.8c-0.09-0.1-0.2-0.2-0.29-0.32&#xD;&#xA;		c-0.11-0.12-0.19-0.22-0.28-0.33l0-0.01c-0.26-0.36-0.5-0.73-0.72-1.12c-0.2-0.39-0.38-0.78-0.51-1.2&#xD;&#xA;		c-0.17-0.56-0.3-1.13-0.37-1.72c-0.04-0.32-0.08-0.66-0.06-1c-0.02-0.81,0.08-1.62,0.28-2.4c0.91-3.65,3.72-6.53,5.15-9.97&#xD;&#xA;		c0.25-0.6,0.47-1.24,0.61-1.89c0.72-3.04,0.32-6.38-1.71-8.72l0-0.02c-0.14-0.18-0.3-0.34-0.48-0.48&#xD;&#xA;		c-0.67-0.63-1.48-1.12-2.37-1.44c-0.2-0.07-0.39-0.14-0.6-0.19c-0.1-0.03-0.2-0.05-0.3-0.08c-0.01,0-0.03,0-0.04,0&#xD;&#xA;		c-0.03-0.01-0.05-0.01-0.07-0.02c-0.18-0.03-0.36-0.06-0.53-0.1c-0.13-0.02-0.26-0.03-0.39-0.04c-0.04-0.01-0.08-0.02-0.12-0.01&#xD;&#xA;		c-0.05,0-0.11-0.01-0.15-0.01c-0.13-0.01-0.26-0.02-0.38-0.01c-0.04,0-0.09,0-0.13,0c-0.13,0.01-0.25,0.01-0.38,0.02&#xD;&#xA;		c-0.35,0.03-0.69,0.08-1.02,0.17c-0.22,0.05-0.44,0.12-0.65,0.21c-0.13,0.03-0.25,0.08-0.36,0.15c-0.19,0.07-0.37,0.17-0.55,0.28&#xD;&#xA;		c-0.03,0.01-0.04,0.01-0.05,0.03c-0.19,0.11-0.36,0.23-0.52,0.38c-0.09,0.07-0.17,0.14-0.25,0.21c-0.18,0.14-0.33,0.29-0.5,0.49&#xD;&#xA;		c-0.65,0.77-1.09,1.74-1.67,2.58c-0.08,0.13-0.17,0.24-0.26,0.35l0,0.02c-1.63,1.87-4.42,2.37-6.82,1.62&#xD;&#xA;		c-0.14-0.05-0.29-0.1-0.42-0.15c-0.31-0.12-0.61-0.26-0.88-0.42c-0.16-0.08-0.31-0.18-0.46-0.27c-0.48-0.34-0.93-0.72-1.32-1.14&#xD;&#xA;		c-0.14-0.15-0.26-0.28-0.38-0.44c-1.23-1.5-2-3.43-2.3-5.37c-0.04-0.21-0.06-0.39-0.07-0.58c-0.03-0.19-0.02-0.38-0.06-0.59&#xD;&#xA;		c-0.01-0.33-0.02-0.66-0.04-0.99c0-0.01,0-0.01,0.01-0.02c0-0.01,0-0.01,0-0.01c0-0.37,0.01-0.73,0.04-1.1c0-0.04,0-0.1,0-0.14&#xD;&#xA;		c0.01-0.12,0.03-0.24,0.04-0.35c0.01-0.12,0.03-0.23,0.03-0.35c0.04-0.36,0.09-0.72,0.15-1.07c0.05-0.21,0.09-0.43,0.13-0.65&#xD;&#xA;		c0.03-0.23,0.09-0.45,0.13-0.67c0.09-0.43,0.2-0.85,0.3-1.27c0.23-0.89,0.49-1.77,0.76-2.63c0.15-0.48,0.29-0.96,0.44-1.46&#xD;&#xA;		c0.06-0.22,0.12-0.43,0.17-0.64c0.87-3.22,1.34-6.65-0.68-9.17c-0.53-0.67-1.19-1.2-1.94-1.65c-0.48-0.28-0.99-0.53-1.51-0.74&#xD;&#xA;		l-0.07-0.04c-1.47-0.58-3.12-0.9-4.73-0.83c-0.02-0.01-0.03,0-0.05,0l-0.02,0c-0.3-3.84-0.52-7.72-0.72-11.57&#xD;&#xA;		c-0.45-7.99-0.83-15.96-0.55-23.94c0.43-11.64,2.29-23.22,5.58-34.4c0.01,0.05,0.03,0.1,0.04,0.15c2.6,10.4,5.31,21.07,11.41,29.86&#xD;&#xA;		c1.8,2.61,3.84,4.98,6.05,7.19c2.79,2.81,5.82,5.36,8.99,7.82c5,3.99,10.27,7.66,15.18,11.7c7.13,5.89,13.53,12.64,18.99,20.06&#xD;&#xA;		l0.01,0.02l0.01,0l-0.01,0.02c0.71,0.95,1.41,1.92,2.08,2.91c0.29,0.39,0.56,0.8,0.83,1.2c0.58,0.86,1.16,1.73,1.72,2.62&#xD;&#xA;		c0.42,0.69,0.86,1.37,1.26,2.07c0.35,0.57,0.71,1.14,1.04,1.73c0.42,0.72,0.84,1.47,1.24,2.21c0.08,0.14,0.16,0.27,0.23,0.41&#xD;&#xA;		l-23.28,47.27c-3.59,1.56-6.81,3.85-9.6,6.62C328.68,318.63,328.86,318.17,329.04,317.7z"/>
	<path class="st2" d="M295.13,264.91c0.07-0.44,0.16-0.88,0.25-1.33C295.29,264.02,295.2,264.46,295.13,264.91z"/>
	<path class="st2" d="M294.89,268.96c0.01,0.19,0.03,0.36,0.07,0.55c-0.03-0.19-0.04-0.38-0.06-0.59c-0.09-1.34,0.01-2.68,0.23-4.01&#xD;&#xA;		C294.91,266.24,294.81,267.6,294.89,268.96z"/>
	<path class="st2" d="M292.86,245.99c-1.51-0.59-3.18-0.91-4.79-0.83l-0.02,0c0,0.01,0,0.01,0,0.03c1.62-0.08,3.29,0.26,4.79,0.83&#xD;&#xA;		c1.34,0.55,2.62,1.29,3.5,2.4c2.14,2.68,1.48,6.39,0.55,9.79c0.97-3.39,1.63-7.12-0.51-9.8&#xD;&#xA;		C295.49,247.29,294.21,246.55,292.86,245.99z"/>
	<path class="st2" d="M299.05,277.03c-0.48-0.34-0.93-0.72-1.33-1.15c0.38,0.44,0.83,0.83,1.33,1.17c2.6,1.76,6.56,1.6,8.56-0.8&#xD;&#xA;		C305.57,278.62,301.64,278.8,299.05,277.03z"/>
	<path class="st2" d="M307.61,276.24c0.74-0.91,1.21-2,1.95-2.91c0.14-0.18,0.31-0.35,0.48-0.51c-0.17,0.14-0.33,0.29-0.5,0.49&#xD;&#xA;		C308.8,274.2,308.33,275.33,307.61,276.24z"/>
	<path class="st2" d="M311.78,271.78c-0.64,0.22-1.23,0.57-1.73,1.04C310.54,272.36,311.14,272.02,311.78,271.78z"/>
	<path class="st2" d="M312.43,271.57c1.34-0.32,2.79-0.22,4.12,0.27C315.2,271.36,313.74,271.23,312.43,271.57z"/>
	<path class="st2" d="M319.37,273.76c-0.14-0.17-0.3-0.34-0.48-0.48c0.17,0.16,0.32,0.32,0.48,0.5L319.37,273.76z"/>
	<path class="st2" d="M316.98,302.15c0.09,0.11,0.19,0.24,0.3,0.34c0.28,0.28,0.6,0.54,0.94,0.78c-0.35-0.25-0.66-0.51-0.94-0.8&#xD;&#xA;		C317.18,302.37,317.07,302.27,316.98,302.15z"/>
	<path class="st2" d="M330.93,299.26c-2.35,0.49-3.63,3.04-5.64,4.37c-1.59,1-3.6,1.08-5.4,0.47c1.78,0.63,3.82,0.55,5.43-0.45&#xD;&#xA;		c2.03-1.31,3.29-3.87,5.62-4.37c0.66-0.14,1.3-0.08,1.89,0.13C332.22,299.18,331.59,299.11,330.93,299.26z"/>
	<path class="st4" d="M361.21,264.81c-0.41-0.74-0.82-1.48-1.24-2.21c-0.33-0.57-0.67-1.15-1.04-1.73c-0.4-0.7-0.84-1.39-1.26-2.07&#xD;&#xA;		c-0.56-0.89-1.14-1.76-1.72-2.62c-0.27-0.4-0.55-0.82-0.83-1.2c-0.67-0.99-1.37-1.96-2.08-2.91l0-0.02l0-0.05&#xD;&#xA;		c-5.5-7.42-11.85-14.16-18.97-20.04c-4.91-4.07-10.2-7.73-15.19-11.71c-0.05-0.57-0.07-1.15-0.08-1.76&#xD;&#xA;		c-0.06-2.05,0.19-4.2,1.35-5.88c1.04-1.48,2.95-2.47,4.67-2.05c0.22,0.04,0.43,0.11,0.64,0.22c-0.55-3.18-0.88-6.92,1.35-9.26&#xD;&#xA;		c1.72-1.77,4.5-2.19,6.85-1.48c0.3,0.08,0.6,0.18,0.89,0.32c0.43,0.17,0.86,0.37,1.26,0.6c0.55,0.31,1.07,0.68,1.56,1.07&#xD;&#xA;		c-0.11,1.17-0.21,2.35-0.28,3.53c-0.2,3.77-0.13,7.6,0.39,11.35c0.43,2.95,1.14,5.87,2.24,8.64c1.47,3.71,3.62,7.16,6.01,10.36&#xD;&#xA;		c2.38,3.19,4.98,6.2,7.86,8.96c-0.03,0.22-0.05,0.47-0.07,0.68c0.04-0.21,0.05-0.44,0.08-0.66c1.12,1.11,2.26,2.15,3.44,3.17&#xD;&#xA;		c0.01,1.07,0.01,2.16,0.09,3.22c0.27,4.65,2,9.19,4.85,12.86l-0.53,1.09C361.37,265.07,361.29,264.94,361.21,264.81z"/>
	<path class="st4" d="M223.89,353.45c1.49,2.37,3.78,4.1,6.2,5.44c6.55,3.61,14.54,4.47,21.73,2.34&#xD;&#xA;		c-2.41-4.92-3.88-10.29-4.27-15.77c6.29,1.81,12.73,3.67,19.26,3.31c2.1-0.12,4.15-0.45,6.22-0.91&#xD;&#xA;		c-14.3-2.23-28.06-8.09-39.55-16.9c-2.07,0.2-4.19,0.83-5.24,2.57c-1.47,2.42-0.11,5.5,1.24,8c-2.74-0.5-5.57,1.42-6.57,3.98&#xD;&#xA;		C221.86,348.08,222.44,351.11,223.89,353.45z"/>
	<path class="st4" d="M300.54,386.36c-0.19-0.45-0.36-0.91-0.53-1.37c-0.15-0.42-0.29-0.84-0.42-1.27c-0.01-0.06-0.04-0.13-0.06-0.2&#xD;&#xA;		c-0.01-0.04-0.02-0.08-0.03-0.12c-0.11-0.4-0.23-0.82-0.33-1.22c-0.01-0.02-0.01-0.04-0.02-0.05l-0.24,0.08&#xD;&#xA;		c0.07-0.03,0.14-0.05,0.21-0.08c-0.11-0.42-0.21-0.84-0.29-1.27c-0.12-0.56-0.23-1.14-0.32-1.71c0-0.06-0.01-0.11-0.02-0.17&#xD;&#xA;		c-0.07-0.48-0.14-0.97-0.18-1.45c-0.01-0.06-0.02-0.12-0.02-0.18c-0.05-0.51-0.08-1.03-0.11-1.55c-0.02-0.38-0.03-0.76-0.03-1.14&#xD;&#xA;		c0-0.2,0-0.41,0-0.61c0-0.08,0-0.16,0-0.23c0-0.01,0-0.02,0-0.03c0-0.16,0-0.32,0.02-0.47c0.01-0.31,0.02-0.63,0.04-0.93&#xD;&#xA;		c0.02-0.34,0.05-0.67,0.08-1c0.03-0.27,0.07-0.55,0.1-0.82c0.03-0.24,0.06-0.49,0.11-0.74c0.04-0.28,0.09-0.56,0.15-0.84&#xD;&#xA;		c0.01-0.09,0.04-0.19,0.05-0.29c0.01-0.09,0.03-0.18,0.06-0.27c0.04-0.19,0.08-0.39,0.12-0.56c0.08-0.37,0.17-0.74,0.28-1.11&#xD;&#xA;		c0.12-0.43,0.25-0.85,0.39-1.27c0.14-0.41,0.29-0.83,0.44-1.24c0.31-0.82,0.67-1.62,1.05-2.41l0.16-0.32&#xD;&#xA;		c0.03-0.06,0.06-0.13,0.1-0.18c0.06-0.12,0.11-0.22,0.18-0.34c0.13-0.24,0.26-0.48,0.39-0.7c0.14-0.23,0.28-0.48,0.42-0.71&#xD;&#xA;		c0.01-0.03,0.04-0.06,0.05-0.09c0.23-0.38,0.47-0.75,0.73-1.11c0.27-0.4,0.55-0.79,0.83-1.17c0.18-0.25,0.36-0.49,0.56-0.73&#xD;&#xA;		c0.2-0.24,0.39-0.48,0.59-0.71c0.2-0.24,0.4-0.47,0.61-0.69c0.2-0.23,0.42-0.46,0.63-0.68c0.44-0.45,0.88-0.9,1.33-1.33&#xD;&#xA;		c0.21-0.21,0.43-0.4,0.66-0.6c0.22-0.2,0.46-0.41,0.7-0.6c0.14-0.13,0.3-0.25,0.45-0.38c0.33-0.26,0.66-0.52,0.99-0.77&#xD;&#xA;		c1.97-1.48,4.1-2.74,6.35-3.72l0.01-0.02c-0.07-4.15,0.58-8.26,1.9-12.19c-1.99-3.03-5.65-4.93-9.24-4.66&#xD;&#xA;		c-0.1,0.02-0.19,0.03-0.29,0.04c-0.04,0-0.08,0.01-0.12,0.02c-0.29,0.03-0.59,0.07-0.87,0.13c-0.16,0.03-0.33,0.07-0.48,0.12&#xD;&#xA;		c-0.05,0.01-0.1,0.02-0.14,0.03c-0.21,0.05-0.41,0.11-0.61,0.18c-0.28,0.1-0.56,0.19-0.83,0.3c-0.28,0.11-0.55,0.23-0.81,0.36&#xD;&#xA;		c-0.11,0.04-0.21,0.09-0.3,0.13c-0.13,0.06-0.25,0.11-0.37,0.19c-0.04,0.03-0.08,0.05-0.12,0.07c-0.05,0.03-0.11,0.06-0.16,0.09&#xD;&#xA;		c-0.03,0.01-0.05,0.03-0.08,0.04c-0.02,0.01-0.04,0.02-0.06,0.04c-0.16,0.09-0.33,0.18-0.49,0.27c-0.53,0.29-1.05,0.61-1.55,0.94&#xD;&#xA;		c-0.53,0.32-1.03,0.66-1.52,1.01c-0.21,0.14-0.42,0.26-0.62,0.41c-0.03,0.02-0.07,0.05-0.1,0.06c-0.03,0.02-0.05,0.04-0.08,0.06&#xD;&#xA;		c-0.27,0.18-0.53,0.36-0.8,0.53c-0.48,0.32-0.97,0.64-1.46,0.94c-0.29,0.17-0.57,0.33-0.86,0.49c-0.2,0.12-0.42,0.24-0.64,0.35&#xD;&#xA;		c-0.07,0.05-0.14,0.08-0.21,0.11c-0.05,0.03-0.1,0.05-0.16,0.08c-0.12,0.06-0.25,0.12-0.38,0.18c-0.21,0.1-0.42,0.19-0.63,0.29&#xD;&#xA;		c-0.17,0.06-0.32,0.13-0.48,0.19c-0.42,0.15-0.84,0.29-1.26,0.39c-0.27,0.07-0.54,0.12-0.8,0.15c-0.21,0.03-0.41,0.07-0.61,0.07&#xD;&#xA;		c-0.01,0-0.01,0-0.02,0c-0.02,0-0.04,0-0.06,0c-0.07,0.01-0.15,0.01-0.23,0.02c-0.23,0.01-0.45,0.01-0.68,0&#xD;&#xA;		c-2.19-0.08-4.43-1.24-5.28-3.24c-0.06-0.14-0.11-0.29-0.16-0.44c-0.01-0.03-0.01-0.05-0.02-0.08c0-0.01,0-0.01-0.01-0.03&#xD;&#xA;		c0-0.01,0-0.02-0.01-0.04c-0.01-0.07-0.03-0.17-0.05-0.25c0.07,0.25,0.16,0.5,0.25,0.75c0.17,0.38,0.38,0.73,0.63,1.05&#xD;&#xA;		c0.07,0.09,0.14,0.17,0.21,0.25c0.09,0.1,0.17,0.2,0.27,0.28c0.07,0.08,0.17,0.16,0.26,0.23c0.08,0.07,0.16,0.13,0.25,0.19&#xD;&#xA;		c0.05,0.05,0.11,0.09,0.18,0.12c0,0.01,0.02,0.02,0.04,0.03c0.07,0.06,0.16,0.11,0.25,0.16c0,0.01,0.02,0.03,0.04,0.03&#xD;&#xA;		c0.01,0.02,0.03,0.03,0.05,0.03c0.13,0.08,0.26,0.16,0.41,0.23l0.03,0.01c0.13,0.07,0.29,0.12,0.43,0.18&#xD;&#xA;		c0.04,0.02,0.09,0.04,0.14,0.06c0.11,0.04,0.23,0.08,0.35,0.11c0.03,0.01,0.06,0.02,0.09,0.02c0.09,0.02,0.18,0.04,0.27,0.07&#xD;&#xA;		c0.07,0.02,0.13,0.04,0.2,0.05c0.2,0.04,0.39,0.08,0.6,0.1c0.2,0.03,0.4,0.04,0.6,0.05c2.17,0.08,4.28-0.74,6.17-1.83&#xD;&#xA;		c4.19-2.34,7.94-6.02,12.74-6.43c0.2-0.01,0.39-0.03,0.58-0.03c0.19-0.01,0.39,0,0.59,0.01c0.2,0.01,0.4,0.02,0.6,0.05&#xD;&#xA;		c0.2,0.02,0.4,0.04,0.6,0.09c0.13,0.02,0.26,0.05,0.39,0.08c0.3,0.06,0.6,0.14,0.89,0.24c0.04,0.01,0.09,0.03,0.12,0.05&#xD;&#xA;		c0.05,0.01,0.1,0.03,0.14,0.05c0.03,0,0.07,0.01,0.11,0.03c0.18,0.07,0.36,0.13,0.54,0.21c0.4,0.16,0.77,0.36,1.14,0.56&#xD;&#xA;		c0.19,0.12,0.37,0.23,0.55,0.34c0.33,0.22,0.65,0.45,0.94,0.71c0.1,0.08,0.21,0.17,0.31,0.26c0.31,0.28,0.61,0.58,0.88,0.89&#xD;&#xA;		c0.15,0.16,0.29,0.34,0.42,0.52c0.15,0.19,0.29,0.39,0.41,0.58c0.01-0.02,0.01-0.03,0.01-0.05c0.12-0.36,0.26-0.73,0.4-1.08&#xD;&#xA;		c0.07-0.21,0.15-0.41,0.23-0.61c0.15-0.37,0.31-0.74,0.47-1.11c0.07-0.17,0.15-0.36,0.23-0.52c0.08-0.17,0.15-0.35,0.23-0.52&#xD;&#xA;		c0,0,0,0-0.01-0.02c0.13-0.29,0.27-0.58,0.41-0.86c0.24-0.49,0.49-0.97,0.76-1.44c0.04-0.09,0.08-0.17,0.13-0.25&#xD;&#xA;		c0.18-0.34,0.37-0.66,0.56-0.97c0.12-0.21,0.25-0.42,0.38-0.63c0.22-0.36,0.44-0.72,0.68-1.07c0.3-0.45,0.61-0.9,0.93-1.34&#xD;&#xA;		c0.06-0.1,0.13-0.19,0.2-0.29c0.25-0.38,0.52-0.69,0.79-1.07c1.07-1.36,2.21-2.63,3.46-3.8c0.13-0.46,0.29-0.94,0.49-1.4&#xD;&#xA;		c-0.18,0.48-0.35,0.93-0.47,1.42c2.79-2.77,6.01-5.05,9.6-6.62l-37.04,75.2C300.92,387.25,300.72,386.82,300.54,386.36z"/>
	<path class="st6" d="M333.3,299.59c-0.14-0.07-0.29-0.13-0.43-0.18c-0.59-0.23-1.22-0.29-1.89-0.15c-2.35,0.49-3.63,3.04-5.64,4.37&#xD;&#xA;		c-1.59,1-3.6,1.08-5.4,0.47c-0.19-0.07-0.39-0.14-0.57-0.22c-0.37-0.18-0.73-0.37-1.07-0.58c0,0,0.01-0.02-0.01-0.02&#xD;&#xA;		c-0.35-0.25-0.66-0.51-0.94-0.8c-0.1-0.11-0.21-0.2-0.3-0.32c-0.11-0.12-0.19-0.22-0.28-0.32l0-0.02&#xD;&#xA;		c-0.25-0.36-0.49-0.73-0.71-1.12c-0.2-0.39-0.38-0.78-0.52-1.2c-0.17-0.56-0.3-1.13-0.37-1.72c-0.03-0.32-0.07-0.66-0.06-1&#xD;&#xA;		c-0.05-0.81,0.06-1.63,0.26-2.43c0.91-3.66,3.71-6.51,5.16-9.96c0.25-0.6,0.46-1.22,0.62-1.87c0.72-3.04,0.32-6.38-1.71-8.72&#xD;&#xA;		l0-0.02c-0.14-0.17-0.3-0.34-0.48-0.48c-0.67-0.63-1.49-1.12-2.37-1.44c-1.34-0.49-2.8-0.61-4.12-0.27&#xD;&#xA;		c-0.23,0.04-0.44,0.13-0.66,0.2c-0.64,0.22-1.23,0.57-1.73,1.04c-0.17,0.14-0.33,0.29-0.5,0.49c-0.74,0.89-1.22,2.02-1.93,2.93&#xD;&#xA;		l0,0.02c-2.04,2.36-5.97,2.54-8.57,0.79c-0.48-0.34-0.93-0.72-1.33-1.15c-0.14-0.15-0.26-0.28-0.38-0.44c-1.23-1.5-2-3.43-2.3-5.37&#xD;&#xA;		c-0.04-0.21-0.06-0.4-0.07-0.59c-0.03-0.19-0.04-0.38-0.06-0.59c-0.09-1.34,0.01-2.68,0.23-4.01c0.07-0.44,0.16-0.88,0.25-1.33&#xD;&#xA;		c0.09-0.43,0.19-0.86,0.3-1.28c0.23-0.89,0.49-1.77,0.76-2.63c0.15-0.48,0.29-0.96,0.44-1.46c0.97-3.39,1.63-7.12-0.51-9.8&#xD;&#xA;		c-0.89-1.12-2.17-1.86-3.52-2.43c-1.51-0.59-3.18-0.91-4.79-0.83l-0.02,0c-1.79,0.02-3.5,0.58-4.9,1.72&#xD;&#xA;		c-0.53,0.43-0.99,0.94-1.4,1.52c0,0.02-0.02,0.01-0.02,0.04c-1.26,1.76-1.98,3.92-2.98,5.85c-1.28,2.58-3.82,5.09-6.68,4.56&#xD;&#xA;		c-1.35-0.26-2.49-1.21-3.47-2.18c-4.89-4.84-8.15-11.67-14.44-14.49c-3.84-1.73-8.61-1.55-11.99,0.9c-3.4,2.47-5,7.36-3.29,11.2&#xD;&#xA;		c2.93,6.5,12.64,6.9,16.82,12.72c1.32,1.87,1.93,4.59,0.55,6.45c-1.24,1.68-3.66,2.02-5.73,1.81c-2.07-0.21-4.15-0.84-6.23-0.58&#xD;&#xA;		c-3.93,0.54-6.94,4.4-7.12,8.37c-0.16,3.98,2.07,7.8,5.21,10.25c0.55,0.43,1.16,0.83,1.8,1.17l0.02-0.01&#xD;&#xA;		c1.62,0.87,3.49,1.33,5.26,0.87c0.67-0.18,1.29-0.46,1.9-0.77c0.25-0.13,0.45-0.25,0.68-0.37c2.83-1.59,5.65-3.15,8.49-4.72&#xD;&#xA;		c3.4-1.87,7.51-3.8,10.96-2c1.45,0.76,2.53,2.06,3.39,3.43c1.27,1.96,2.23,4.51,1.12,6.59c-0.46,0.93-1.2,1.54-2.07,1.94&#xD;&#xA;		c-0.04,0.01-0.06,0.04-0.1,0.05c-2.13,0.98-5.08,0.92-7.51,1.51c-3.42,0.8-6.21,3.44-7.5,6.68c-0.34,0.77-0.56,1.59-0.67,2.4&#xD;&#xA;		c-0.07,0.39-0.12,0.78-0.12,1.18c-0.02,0.59,0.01,1.19,0.08,1.76c0.57,4.08,3.45,7.75,7.31,9.26c4.41,1.69,9.73,0.45,13.04-2.95&#xD;&#xA;		c1.28-1.34,2.29-2.92,3.73-4.05c1.92-1.46,4.46-1.92,6.85-1.72c2.54,0.24,5.14,1.23,6.77,3.23c0.85,1.06,1.35,2.44,1.36,3.81&#xD;&#xA;		c0.01,0.44-0.03,0.89-0.13,1.33c-0.05,0.26-0.13,0.51-0.22,0.74c-0.07,0.2-0.18,0.4-0.28,0.62c-0.13,0.22-0.28,0.43-0.44,0.63&#xD;&#xA;		c-1.62,1.96-4.47,2.27-6.81,3.37c-2.02,0.95-3.75,2.86-4.21,4.95c-0.1,0.46-0.16,0.95-0.13,1.42c0.01,0.24,0.04,0.51,0.09,0.76&#xD;&#xA;		c0.06,0.24,0.15,0.5,0.25,0.75c0.86,2.02,3.11,3.16,5.28,3.24c2.17,0.08,4.28-0.74,6.17-1.83c4.19-2.34,7.93-6.04,12.73-6.44&#xD;&#xA;		c3.58-0.29,7.25,1.61,9.23,4.64c0.45-1.34,0.99-2.66,1.58-3.89c0,0,0,0-0.01-0.02c1.13-2.42,2.46-4.71,4.04-6.85&#xD;&#xA;		c0.25-0.38,0.51-0.7,0.79-1.07c1.07-1.36,2.21-2.63,3.46-3.8c0.12-0.47,0.29-0.94,0.49-1.4c0,0,0,0,0-0.02&#xD;&#xA;		c0.2-0.45,0.42-0.89,0.67-1.34c0.49-0.88,1.09-1.75,1.7-2.55c0.17-0.21,0.33-0.43,0.51-0.64c1.2-1.53,2.47-3.06,3.3-4.75&#xD;&#xA;		c0.44-0.89,0.76-1.82,0.9-2.81C336.48,303.25,335.19,300.59,333.3,299.59z"/>
	<path class="st7" d="M223.79,199.98c4.81,3.92,10.72,6.48,16.88,7.39c-4.04-5.67-7.55-11.76-10.47-18.09l-1.14-3.17&#xD;&#xA;		c-1-5.35-4.56-10.16-9.37-12.68c-1.83-0.97-4.12-1.57-5.91-0.56c-2.42,1.41-2.47,4.88-1.9,7.6&#xD;&#xA;		C213.51,188.08,217.76,195.08,223.79,199.98z"/>
	<path class="st2" d="M240.64,207.38c1.07,1.5,2.17,2.97,3.29,4.41c3.99,5.05,8.4,9.75,12.84,14.38c0.37,0.4,0.77,0.79,1.16,1.21&#xD;&#xA;		c4.29,4.42,8.65,8.85,13.31,12.91c3.35,2.95,6.85,5.7,10.54,8.16"/>
	<path class="st7" d="M268.98,222.03c0.12-1.2,0.33-2.38,0.64-3.54c1.23-4.63,4.04-8.71,5.91-13.14c1.9-4.44,2.76-9.81,0.17-13.87&#xD;&#xA;		c-0.53-0.82-1.22-1.6-2.09-2.05c-0.96-0.5-2.09-0.58-3.15-0.42c-3.46,0.54-6.04,3.73-6.87,7.13c-0.83,3.39-0.26,6.96,0.53,10.36&#xD;&#xA;		C265.32,211.79,266.96,217,268.98,222.03z"/>
	<path class="st2" d="M268.99,222.05c-0.38,3.84,0.07,7.77,0.74,11.59c0.4,2.22,0.85,4.48,1.52,6.62"/>
	<path class="st7" d="M224.36,228.88c0.58,0.46,1.29,0.55,2.03,0.59c6.48,0.34,12.48-3.3,18.89-4.4c-0.93-0.36-1.86-0.67-2.8-0.97&#xD;&#xA;		c-4.92-1.46-10.25-1.94-15.14-0.43c-1.16,0.37-2.36,0.89-3.11,1.86C223.49,226.52,223.39,228.1,224.36,228.88z"/>
	<path class="st2" d="M245.25,225.07c0.31-0.08,0.61-0.12,0.93-0.17c3.57-0.47,7.23-0.01,10.58,1.25"/>
	<path class="st2" d="M322.04,345.23c-1.8,0.42-3.56,1.02-5.26,1.77"/>
	<path class="st8" d="M280.82,393.87l11.01,0.76c0-0.01-0.01-0.02-0.02-0.03c-2.05-2.88-3.39-6.29-3.74-9.81l-0.04-0.01&#xD;&#xA;		c0.01,0,0.02-0.01,0.02-0.01c0.15,0.01,0.28,0.02,0.43,0.01c0.17,0.01,0.32,0,0.49,0c0.15,0.01,0.32,0,0.47-0.03&#xD;&#xA;		c0.17,0.01,0.32,0,0.48-0.02c0.49-0.03,0.96-0.09,1.43-0.17c0.02-0.02,0.02-0.02,0.04-0.02c0.59-0.09,1.16-0.2,1.73-0.35&#xD;&#xA;		c0.29-0.07,0.59-0.14,0.88-0.23c0.59-0.16,1.17-0.35,1.75-0.53c0.56-0.19,1.12-0.4,1.68-0.62c0.29-0.11,0.56-0.2,0.85-0.32&#xD;&#xA;		c0.16-0.07,0.31-0.1,0.46-0.15c0.14-0.06,0.28-0.11,0.42-0.16c0.01,0,0.04-0.01,0.05-0.02c0.48,1.88,1.12,3.72,1.94,5.48&#xD;&#xA;		l10.55-21.43c0,0-0.01,0,0-0.01c-0.13-0.46-0.24-0.92-0.34-1.38c0-0.01-0.01-0.03-0.01-0.05c-1.07-4.67-1.24-9.54-0.49-14.25&#xD;&#xA;		l-0.36,0.26c-3.93,2.93-7.18,6.72-9.35,11.07l-0.02,0.04c-0.79,1.57-1.43,3.22-1.9,4.93c-0.63,2.31-0.96,4.66-1,7.02&#xD;&#xA;		c-0.02,0.22-0.02,0.49-0.02,0.72c-0.01,0.43,0,0.85,0.03,1.27c-0.02,0-0.04,0-0.06,0c-3.95,0.08-7.93-0.51-11.71-1.71&#xD;&#xA;		c-0.01,0-0.02,0-0.03-0.01c0,0,0,0.01-0.01,0c-0.01,0-0.01,0-0.02-0.01c-0.02,0-0.04-0.01-0.06-0.02c-1.69-0.54-3.36-1.21-4.95-2&#xD;&#xA;		c-1.26-0.63-2.49-1.34-3.66-2.12c-0.01,0-0.02-0.02-0.03-0.03c-0.15-0.1-0.31-0.19-0.45-0.3c-7.1-4.89-12.3-12.44-14.35-20.8&#xD;&#xA;		c-0.65-0.04-1.29-0.11-1.94-0.19c-2.11-0.25-4.19-0.67-6.27-1.18c-0.13-0.04-0.26-0.07-0.39-0.09l-0.01,0&#xD;&#xA;		c-0.65-0.17-1.32-0.34-1.99-0.51c-1.56-0.4-3.12-0.84-4.67-1.3l-0.02,0c0.07,0.79,0.15,1.59,0.25,2.39&#xD;&#xA;		c0.07,0.57,0.16,1.12,0.26,1.67c0.03,0.21,0.07,0.4,0.11,0.61c0.08,0.47,0.18,0.96,0.28,1.41c0.15,0.63,0.29,1.22,0.44,1.83&#xD;&#xA;		c0.23,0.79,0.46,1.58,0.72,2.36c0.19,0.56,0.37,1.12,0.59,1.66c0.09,0.25,0.19,0.5,0.3,0.76c-0.01,0-0.03,0-0.04,0&#xD;&#xA;		c-0.01,0-0.02,0-0.02,0c-0.18,0-0.34-0.01-0.51-0.01c-6.73,0.02-13.3-2.73-18.34-7.18c-2.67-2.34-4.91-5.15-6.53-8.29&#xD;&#xA;		c-0.93,0.73-1.69,1.69-2.12,2.79c-1.04,2.57-0.48,5.6,0.99,7.95c0.31,0.49,0.65,0.95,1.01,1.38c0.66,0.77,1.4,1.47,2.2,2.11&#xD;&#xA;		c0.27,0.21,0.53,0.41,0.82,0.6c0.19,0.14,0.37,0.26,0.57,0.39c0.5,0.34,1.01,0.63,1.54,0.93c0.02,0.02,0.04,0.03,0.07,0.04&#xD;&#xA;		c6.54,3.6,14.51,4.45,21.69,2.36c0.01,0,0.04,0,0.05-0.01c0.4,0.82,0.83,1.62,1.28,2.41c0.71,1.24,1.5,2.46,2.34,3.62l0,0.01&#xD;&#xA;		c1.02,1.42,2.13,2.78,3.32,4.05c2.85,3.06,6.16,5.7,9.78,7.79c0.37,0.22,0.74,0.43,1.14,0.64c0.44,0.24,0.89,0.47,1.34,0.69&#xD;&#xA;		c0.33,0.16,0.67,0.33,1.02,0.48c0.29,0.14,0.57,0.26,0.87,0.39c1.44,0.62,2.92,1.17,4.43,1.64c0,0,0-0.01,0.01,0c0,0,0,0.01,0,0.01&#xD;&#xA;		c0.02,0,0.04,0.01,0.06,0.02c0.71,0.21,1.42,0.42,2.14,0.6c0.02,0.01,0.03,0,0.05,0.01c0.01,0,0.01,0,0.04,0&#xD;&#xA;		c-0.82,2.32-0.94,4.88-0.23,7.22c0.29,1.06,0.75,2.06,1.31,2.98C280.81,393.86,280.81,393.86,280.82,393.87z M286.1,384.71&#xD;&#xA;		c0.09,0.01,0.16,0.01,0.25,0.01c0.15,0.02,0.3,0.03,0.44,0.03c-0.15,0.01-0.3,0-0.43-0.01C286.28,384.74,286.2,384.72,286.1,384.71&#xD;&#xA;		z M284.68,384.57L284.68,384.57c0.01,0,0.01,0,0.01,0L284.68,384.57z M284.63,384.56c0.01,0,0.03,0.01,0.05,0.01l0-0.01&#xD;&#xA;		C284.67,384.56,284.65,384.56,284.63,384.56z"/>
	<path class="st8" d="M247.5,321.43c-6.78-7.17-12.8-16.02-14.55-25.47c-1.49,0.33-2.96,0.69-4.44,1.14&#xD;&#xA;		c-4.22,1.29-8.63,3.35-10.56,7.32c-1.46,2.98-1.17,6.68,0.14,9.82c1.32,3.13,3.57,5.79,5.92,8.24c2.96,3.09,6.13,5.95,9.52,8.53&#xD;&#xA;		l0.02,0c0.12,0.09,0.25,0.18,0.37,0.28c6.21,4.72,13.09,8.57,20.35,11.46c0.47,0.2,0.95,0.38,1.43,0.55&#xD;&#xA;		c2.23,0.85,4.51,1.61,6.82,2.28c0.86,0.25,1.73,0.49,2.62,0.71c1.83,0.47,3.68,0.88,5.56,1.21c0.8,0.15,1.62,0.29,2.42,0.41&#xD;&#xA;		c-0.01,0-0.03,0.02-0.05,0.02c0.01,0,0.01,0,0.03,0l0.02,0c0.48-0.11,0.95-0.21,1.41-0.33c1.46-0.35,2.9-0.75,4.31-1.15&#xD;&#xA;		c0.69-0.2,1.37-0.4,2.05-0.59C268.4,339.79,257.04,331.5,247.5,321.43z"/>
	<path class="st8" d="M305.39,230.93c0.4-6.31,1.59-12.97,4.48-18.51c-2.18-2.18-4.21-4.54-5.99-7.12&#xD;&#xA;		c-6.14-8.84-8.84-19.57-11.45-30.02c-3.29,11.18-5.16,22.76-5.58,34.4c-0.29,7.96,0.1,15.94,0.55,23.92&#xD;&#xA;		c0.2,3.84,0.43,7.73,0.72,11.57l0.02,0c1.62-0.08,3.29,0.24,4.79,0.83c1.36,0.57,2.64,1.31,3.52,2.43c2.14,2.68,1.48,6.41,0.51,9.8&#xD;&#xA;		c-0.14,0.5-0.29,0.98-0.44,1.46c-0.27,0.86-0.53,1.75-0.76,2.63c-0.11,0.43-0.21,0.86-0.3,1.28c-0.11,0.45-0.2,0.87-0.26,1.32&#xD;&#xA;		c-0.07,0.31-0.1,0.63-0.14,0.94l-0.01,0.11c-0.01,0.16-0.04,0.34-0.06,0.52c-0.04,0.48-0.07,0.95-0.06,1.42&#xD;&#xA;		c0.02,0.33,0.04,0.68,0.05,1.01c0.03,0.21,0.03,0.39,0.06,0.59c0,0.19,0.02,0.38,0.07,0.59c0.29,1.94,1.07,3.87,2.3,5.37&#xD;&#xA;		c0.12,0.16,0.24,0.31,0.38,0.44c0.41,0.42,0.85,0.81,1.33,1.15c2.6,1.75,6.53,1.58,8.57-0.79l0-0.02c0.72-0.9,1.2-2.04,1.93-2.93&#xD;&#xA;		c0.16-0.19,0.32-0.36,0.5-0.49c0.23-0.21,0.46-0.4,0.72-0.55C306.35,259.04,304.49,244.89,305.39,230.93z"/>
	<path class="st8" d="M337.16,205.59c0.06-1.18,0.16-2.35,0.28-3.53c-1.1-0.89-2.35-1.59-3.71-1.99c-2.36-0.71-5.13-0.3-6.85,1.49&#xD;&#xA;		c-2.23,2.33-1.9,6.06-1.35,9.24c-1.86-0.88-4.15,0.16-5.32,1.83c-1.15,1.68-1.42,3.83-1.35,5.88c0.01,0.61,0.03,1.19,0.08,1.76&#xD;&#xA;		c3.79,3.03,7.77,5.88,11.61,8.85c0.91-4.67,3.45-9.06,6.97-12.26C337.01,213.14,336.96,209.34,337.16,205.59z"/>
	<path class="st8" d="M308.83,315.28c-5.24-4.36-9.45-10.43-10.1-17.22c-0.22-2.32-0.02-4.75-0.87-6.92&#xD;&#xA;		c-1.93-4.94-7.97-6.47-12.63-8.98c-8.18-4.43-13.05-14.05-12.43-23.26c-0.21,0.01-0.41-0.02-0.62-0.06&#xD;&#xA;		c-1.35-0.26-2.49-1.21-3.47-2.18c-4.89-4.84-8.15-11.67-14.44-14.49c-3.84-1.73-8.61-1.55-11.99,0.9c-3.4,2.47-5,7.36-3.29,11.2&#xD;&#xA;		c2.93,6.5,12.64,6.9,16.82,12.72c1.32,1.87,1.93,4.59,0.55,6.45c-1.24,1.68-3.66,2.02-5.73,1.81c-2.08-0.2-4.15-0.83-6.24-0.58&#xD;&#xA;		c-3.93,0.54-6.94,4.4-7.12,8.37c-0.16,3.98,2.07,7.8,5.21,10.25c0.55,0.43,1.16,0.83,1.8,1.17l0.02-0.01&#xD;&#xA;		c1.62,0.87,3.49,1.33,5.26,0.87c0.67-0.18,1.29-0.46,1.9-0.77c0.25-0.13,0.45-0.25,0.68-0.37c2.83-1.59,5.65-3.15,8.49-4.72&#xD;&#xA;		c3.4-1.87,7.51-3.8,10.96-2c1.45,0.76,2.53,2.06,3.39,3.43c1.27,1.96,2.23,4.51,1.12,6.59c-0.46,0.93-1.2,1.54-2.07,1.94&#xD;&#xA;		c-0.04,0.01-0.06,0.04-0.1,0.05c0.04,0,0.06,0.02,0.09,0.02c-2.14,1.02-5.14,0.93-7.62,1.54c-3.37,0.82-6.16,3.42-7.49,6.62&#xD;&#xA;		c-0.34,0.77-0.56,1.59-0.67,2.4c-0.07,0.39-0.12,0.78-0.12,1.18c-0.02,0.59,0.01,1.19,0.08,1.76c0.57,4.08,3.45,7.75,7.31,9.26&#xD;&#xA;		c4.41,1.69,9.73,0.45,13.04-2.95c1.28-1.34,2.29-2.92,3.73-4.05c1.92-1.46,4.45-1.92,6.85-1.72c2.54,0.24,5.14,1.23,6.77,3.23&#xD;&#xA;		c0.85,1.06,1.35,2.44,1.36,3.81c0.01,0.44-0.03,0.89-0.13,1.33c-0.05,0.26-0.13,0.51-0.22,0.74c-0.07,0.2-0.18,0.4-0.28,0.62&#xD;&#xA;		c-0.13,0.24-0.27,0.49-0.46,0.7c-1.6,1.96-4.47,2.27-6.79,3.35c-2,0.96-3.71,2.84-4.21,4.9c-0.1,0.46-0.16,0.95-0.13,1.42&#xD;&#xA;		c0.01,0.24,0.04,0.51,0.09,0.76c0.06,0.24,0.15,0.5,0.25,0.75c0.86,2.02,3.11,3.16,5.28,3.24c2.17,0.08,4.28-0.74,6.17-1.83&#xD;&#xA;		c4.19-2.34,7.93-6.04,12.73-6.44c3.58-0.29,7.25,1.61,9.23,4.64c0.45-1.34,0.99-2.66,1.58-3.89c0,0,0,0-0.01-0.02&#xD;&#xA;		c0.28-0.6,0.57-1.2,0.89-1.78c0.56-1.12,1.19-2.18,1.85-3.22c0.35-0.52,0.7-1.05,1.08-1.56&#xD;&#xA;		C318.75,321.79,313.4,319.1,308.83,315.28z"/>
	<path class="st8" d="M228.38,183.46c-1.51-4.24-4.62-7.89-8.61-9.99c-1.84-0.98-4.12-1.59-5.92-0.56c-2.42,1.39-2.48,4.87-1.91,7.6&#xD;&#xA;		c1.5,6.95,5.16,13.38,10.38,18.18c0-3.42,0.66-6.82,2.17-9.89C225.45,186.8,226.79,185,228.38,183.46z"/>
	<path class="st8" d="M232.57,222.83c-1.76,0.08-3.49,0.38-5.17,0.89c-1.17,0.37-2.36,0.89-3.1,1.85c-0.75,0.99-0.84,2.56,0.12,3.35&#xD;&#xA;		c0.57,0.45,1.29,0.53,2.03,0.59c1.35,0.07,2.67-0.04,3.98-0.26C230.35,226.95,231.13,224.59,232.57,222.83z"/>
	<path class="st8" d="M273.67,189.45c-0.96-0.5-2.08-0.58-3.15-0.42c-3.45,0.54-6.02,3.74-6.86,7.14c-0.72,2.92-0.39,5.97,0.23,8.94&#xD;&#xA;		c0.74-2.45,1.86-4.79,3.32-6.89c2.11-3.02,4.91-5.53,8.12-7.34C274.88,190.3,274.33,189.8,273.67,189.45z"/>
	<path class="st2" d="M240.64,207.38c1.07,1.5,2.17,2.97,3.29,4.41c3.99,5.05,8.4,9.75,12.84,14.38c0.37,0.4,0.77,0.79,1.16,1.21&#xD;&#xA;		c4.29,4.42,8.65,8.85,13.31,12.91c3.35,2.95,6.85,5.7,10.54,8.16"/>
	<path class="st2" d="M268.99,222.05c-0.38,3.84,0.07,7.77,0.74,11.59c0.4,2.22,0.85,4.48,1.52,6.62"/>
	<path class="st2" d="M245.25,225.07c0.31-0.08,0.61-0.12,0.93-0.17c3.57-0.47,7.23-0.01,10.58,1.25"/>
	<path class="st9" d="M310.43,350.72c-0.39-0.46-0.8-0.91-1.24-1.35c-0.31-0.31-0.65-0.63-0.98-0.9c-0.18-0.16-0.36-0.31-0.53-0.45&#xD;&#xA;		c-0.09-0.1-0.2-0.16-0.29-0.23c-0.25-0.2-0.5-0.39-0.75-0.56c-0.19-0.15-0.41-0.29-0.61-0.42c-0.62-0.44-1.29-0.82-1.97-1.17&#xD;&#xA;		c-0.54-0.26-1.09-0.53-1.64-0.75c-0.14-0.07-0.29-0.11-0.43-0.18c-0.14-0.07-0.28-0.11-0.42-0.16c-1.13-0.41-2.32-0.73-3.53-0.92&#xD;&#xA;		c-0.73-0.13-1.43-0.21-2.14-0.26c-0.95-0.06-1.89-0.07-2.85-0.02c-0.47,0.03-0.96,0.06-1.43,0.11c-2.44,0.22-4.87,0.75-7.33,1.39&#xD;&#xA;		c-0.88,0.22-1.75,0.46-2.64,0.72c-0.96,0.27-1.9,0.55-2.86,0.82c-1.44,0.42-2.88,0.82-4.31,1.15c-0.48,0.13-0.94,0.25-1.41,0.35&#xD;&#xA;		c-2.08,0.44-4.13,0.79-6.23,0.9c-6.53,0.35-12.94-1.49-19.24-3.3l-0.02,0c0.1,1.35,0.26,2.7,0.51,4.05&#xD;&#xA;		c0.11,0.69,0.25,1.35,0.39,2.02c0.46,2.06,1.07,4.09,1.82,6.07c0.16,0.4,0.32,0.8,0.48,1.2c0.12,0.29,0.24,0.6,0.39,0.89&#xD;&#xA;		c0.23,0.5,0.45,1.01,0.7,1.52c1.79,3.68,4.15,7.1,6.93,10.1c5.57,5.99,12.92,10.31,20.85,12.26c0.01,0,0.01,0,0.03,0&#xD;&#xA;		c1.36,0.34,2.71,0.62,4.09,0.81c2.5,0.36,5.06,0.5,7.53,0.11c0.02-0.01,0.02-0.01,0.04-0.01c0.59-0.09,1.16-0.2,1.73-0.35&#xD;&#xA;		c0.28-0.07,0.58-0.15,0.88-0.24c0.59-0.16,1.17-0.35,1.75-0.53c0.56-0.18,1.12-0.39,1.67-0.61c0.29-0.11,0.56-0.2,0.85-0.32&#xD;&#xA;		c0.15-0.06,0.31-0.1,0.46-0.15c0.15-0.06,0.31-0.13,0.44-0.17c-1.27-5.01-1.33-10.31,0.05-15.35&#xD;&#xA;		C300.95,360.34,305.07,354.72,310.43,350.72z"/>
	<path class="st9" d="M279.41,390.85c-0.7-2.34-0.58-4.9,0.22-7.2c0-0.01,0-0.01,0.01-0.02c1.38,0.33,2.73,0.62,4.11,0.81&#xD;&#xA;		c0.29,0.04,0.59,0.08,0.88,0.12c0.02,0,0.04,0,0.05,0s0.01,0,0.01,0c1.12,0.13,2.24,0.21,3.35,0.21c0.46,0,0.91-0.01,1.37-0.04&#xD;&#xA;		l0.01,0c0.62-0.03,1.24-0.09,1.85-0.19c0.02-0.02,0.02-0.02,0.03-0.02c0.59-0.09,1.17-0.2,1.74-0.35c0.29-0.08,0.59-0.16,0.88-0.25&#xD;&#xA;		c0.59-0.16,1.17-0.35,1.75-0.53c0.56-0.19,1.12-0.4,1.68-0.62c0.31-0.08,0.6-0.2,0.89-0.31c0.13-0.05,0.29-0.11,0.42-0.16&#xD;&#xA;		c0.08-0.04,0.16-0.07,0.24-0.1l0.24-0.08c0,0.01,0,0.04,0.02,0.05c0.1,0.41,0.21,0.82,0.33,1.22c0.01,0.04,0.02,0.08,0.03,0.12&#xD;&#xA;		c0.02,0.07,0.05,0.13,0.06,0.2c0.14,0.42,0.27,0.85,0.42,1.27c0.16,0.46,0.34,0.92,0.53,1.37c0.18,0.46,0.38,0.9,0.59,1.35&#xD;&#xA;		l-3.21,6.52c-0.27,0.25-0.55,0.5-0.81,0.75l-5.29-0.37l-11.01-0.76l-0.04,0C280.17,392.93,279.72,391.92,279.41,390.85z"/>
	<path class="st9" d="M283.79,384.4c-1.42-0.2-2.77-0.47-4.14-0.81l0,0.02c1.36,0.34,2.71,0.62,4.09,0.81&#xD;&#xA;		c2.5,0.36,5.06,0.5,7.53,0.11C288.82,384.91,286.27,384.77,283.79,384.4z"/>
	<path class="st9" d="M318.72,334.79c-1.99-3.03-5.65-4.94-9.24-4.66c-4.8,0.4-8.56,4.09-12.72,6.45c-1.9,1.09-4.02,1.94-6.17,1.83&#xD;&#xA;		c-2.19-0.08-4.43-1.24-5.28-3.24c-0.23-0.53-0.32-1.06-0.34-1.59c-0.03-0.47,0.03-0.96,0.13-1.42c0.5-2.05,2.21-3.94,4.21-4.9&#xD;&#xA;		c2.31-1.08,5.19-1.39,6.79-3.35c0.18-0.21,0.33-0.46,0.46-0.7c0.11-0.22,0.22-0.42,0.28-0.62c0.1-0.24,0.17-0.5,0.22-0.74&#xD;&#xA;		c0.36-1.72-0.12-3.67-1.25-5.06c-1.61-2.01-4.23-3.01-6.75-3.22c-2.41-0.23-4.94,0.24-6.87,1.72c-1.45,1.1-2.44,2.71-3.73,4.05&#xD;&#xA;		c-3.28,3.4-8.61,4.62-13.02,2.95c-3.88-1.51-6.78-5.25-7.31-9.34c-0.09-0.56-0.13-1.14-0.11-1.7c0.01-0.42,0.05-0.83,0.14-1.24&#xD;&#xA;		c0.11-0.83,0.33-1.63,0.67-2.4c1.33-3.19,4.12-5.81,7.49-6.62c2.49-0.59,5.48-0.52,7.62-1.54c-0.04,0-0.06-0.02-0.09-0.02&#xD;&#xA;		c-1.67-0.62-3.36-1.19-5.09-1.7c-5.65-1.69-11.51-2.81-17.41-3.16c-0.62,0.32-1.23,0.59-1.9,0.77c-1.75,0.46-3.63,0.02-5.28-0.85&#xD;&#xA;		l-0.02,0c-5.31,0.19-10.58,1.01-15.68,2.55c-4.22,1.29-8.63,3.35-10.56,7.32c-1.46,2.98-1.17,6.68,0.14,9.82&#xD;&#xA;		c1.32,3.13,3.57,5.79,5.92,8.24c2.96,3.09,6.13,5.95,9.52,8.53c-0.01,0.02,0.01,0.02,0.01,0.02c1.43,1.1,2.9,2.15,4.41,3.16&#xD;&#xA;		c0.75,0.48,1.53,0.99,2.31,1.47c2.29,1.46,4.66,2.78,7.08,3.99c8.1,4.08,16.81,6.9,25.76,8.28l0.02,0&#xD;&#xA;		c0.48-0.11,0.95-0.21,1.41-0.33c1.46-0.35,2.9-0.75,4.31-1.15c0.96-0.27,1.9-0.55,2.86-0.82c0.87-0.26,1.76-0.49,2.64-0.72&#xD;&#xA;		c2.45-0.65,4.89-1.17,7.33-1.39c0.47-0.05,0.97-0.08,1.43-0.11c0.96-0.05,1.9-0.04,2.85,0.02c0.71,0.05,1.41,0.12,2.12,0.24&#xD;&#xA;		c1.2,0.21,2.38,0.53,3.54,0.94c0.14,0.05,0.28,0.09,0.42,0.16c0.14,0.05,0.29,0.1,0.43,0.18c0.56,0.21,1.11,0.47,1.64,0.75&#xD;&#xA;		c0.66,0.35,1.34,0.73,1.97,1.17c0.21,0.12,0.41,0.26,0.61,0.42c0.25,0.17,0.5,0.36,0.75,0.56c0.09,0.07,0.2,0.13,0.29,0.23&#xD;&#xA;		c0.18,0.12,0.36,0.27,0.53,0.45c0.33,0.28,0.67,0.6,0.98,0.9c0.44,0.45,0.86,0.89,1.24,1.35c1.97-1.48,4.09-2.74,6.35-3.72l0-0.02&#xD;&#xA;		C316.7,342.86,317.36,338.73,318.72,334.79z"/>
	<path class="st9" d="M329.04,317.7c0,0,0,0,0-0.01c0.2-0.46,0.43-0.89,0.69-1.35c0.49-0.88,1.07-1.75,1.69-2.55&#xD;&#xA;		c0.17-0.21,0.33-0.43,0.51-0.64c0.15-0.19,0.3-0.39,0.45-0.57c0.15-0.19,0.3-0.39,0.45-0.58c0.31-0.38,0.61-0.78,0.89-1.17&#xD;&#xA;		c0.15-0.19,0.28-0.4,0.43-0.59c0.27-0.39,0.52-0.81,0.76-1.21c0.11-0.22,0.22-0.42,0.32-0.63c0.44-0.89,0.77-1.83,0.91-2.82&#xD;&#xA;		c0.35-2.32-0.93-4.99-2.88-5.99c-0.15-0.06-0.29-0.13-0.44-0.17c-0.58-0.23-1.21-0.3-1.89-0.15c-2.34,0.5-3.63,3.04-5.64,4.36&#xD;&#xA;		c-0.13,0.09-0.28,0.18-0.41,0.24c-0.06,0.04-0.13,0.07-0.2,0.09c-0.07,0.05-0.15,0.07-0.22,0.1c-0.14,0.05-0.28,0.11-0.43,0.15&#xD;&#xA;		l0,0.01c-0.15,0.05-0.3,0.09-0.46,0.12c-0.07,0.02-0.13,0.04-0.2,0.04c-0.01,0-0.03,0.01-0.04,0c-0.08,0.03-0.15,0.04-0.22,0.05&#xD;&#xA;		c-0.13,0.02-0.26,0.04-0.38,0.03c-0.2,0.02-0.4,0.02-0.6,0.03c-0.13,0.01-0.25,0-0.37-0.02c-0.09,0-0.18,0-0.27-0.01&#xD;&#xA;		c-0.05,0-0.12-0.01-0.17-0.03c-0.06-0.01-0.12-0.01-0.17-0.03c-0.11-0.01-0.21-0.03-0.31-0.04c-0.03,0.01-0.05,0-0.08-0.02&#xD;&#xA;		c-0.06-0.01-0.12-0.03-0.18-0.04c-0.04,0-0.08,0-0.11-0.02c-0.19-0.04-0.39-0.1-0.57-0.17c-0.18-0.07-0.39-0.15-0.56-0.23&#xD;&#xA;		c-0.36-0.17-0.72-0.37-1.07-0.57c0,0,0-0.02-0.02-0.02c-0.33-0.25-0.66-0.52-0.94-0.8c-0.09-0.1-0.2-0.2-0.29-0.32&#xD;&#xA;		c-0.11-0.12-0.19-0.22-0.28-0.33l0-0.01c-0.26-0.36-0.5-0.73-0.72-1.12c-0.2-0.39-0.38-0.78-0.51-1.2&#xD;&#xA;		c-0.17-0.56-0.3-1.13-0.37-1.72c-0.04-0.32-0.08-0.66-0.06-1c-0.02-0.81,0.08-1.62,0.28-2.4c0.91-3.65,3.72-6.53,5.15-9.97&#xD;&#xA;		c0.25-0.6,0.47-1.24,0.61-1.89c0.72-3.04,0.32-6.38-1.71-8.72l0-0.02c-0.14-0.18-0.3-0.34-0.48-0.48&#xD;&#xA;		c-0.67-0.63-1.48-1.12-2.37-1.44c-0.2-0.07-0.39-0.14-0.6-0.19c-0.1-0.03-0.2-0.05-0.3-0.08c-0.01,0-0.03,0-0.04,0&#xD;&#xA;		c-0.03-0.01-0.05-0.01-0.07-0.02c-0.18-0.03-0.36-0.06-0.53-0.1c-0.13-0.02-0.26-0.03-0.39-0.04c-0.04-0.01-0.08-0.02-0.12-0.01&#xD;&#xA;		c-0.05,0-0.11-0.01-0.15-0.01c-0.13-0.01-0.26-0.02-0.38-0.01c-0.04,0-0.09,0-0.13,0c-0.13,0.01-0.25,0.01-0.38,0.02&#xD;&#xA;		c-0.35,0.03-0.69,0.08-1.02,0.17c-0.22,0.05-0.44,0.12-0.65,0.21c-0.13,0.03-0.25,0.08-0.36,0.15c-0.19,0.07-0.37,0.17-0.55,0.28&#xD;&#xA;		c-0.03,0.01-0.04,0.01-0.05,0.03c-0.19,0.11-0.36,0.23-0.52,0.38c-0.09,0.07-0.17,0.14-0.25,0.21c-0.18,0.14-0.33,0.29-0.5,0.49&#xD;&#xA;		c-0.65,0.77-1.09,1.74-1.67,2.58c-0.08,0.13-0.17,0.24-0.26,0.35l0,0.02c-1.63,1.87-4.42,2.37-6.82,1.62&#xD;&#xA;		c-0.14-0.05-0.29-0.1-0.42-0.15c-0.31-0.12-0.61-0.26-0.88-0.42c-0.16-0.08-0.31-0.18-0.46-0.27c-0.48-0.34-0.93-0.72-1.32-1.14&#xD;&#xA;		c-0.14-0.15-0.26-0.28-0.38-0.44c-1.23-1.5-2-3.43-2.3-5.37c-0.04-0.21-0.06-0.39-0.07-0.58c-0.03-0.19-0.02-0.38-0.06-0.59&#xD;&#xA;		c-0.01-0.33-0.02-0.66-0.04-0.99c0-0.01,0-0.01,0.01-0.02c0-0.01,0-0.01,0-0.01c0-0.37,0.01-0.73,0.04-1.1c0-0.04,0-0.1,0-0.14&#xD;&#xA;		c0.01-0.12,0.03-0.24,0.04-0.35c0.01-0.12,0.03-0.23,0.03-0.35c0.04-0.36,0.09-0.72,0.15-1.07c0.05-0.21,0.09-0.43,0.13-0.65&#xD;&#xA;		c0.03-0.23,0.09-0.45,0.13-0.67c0.09-0.43,0.2-0.85,0.3-1.27c0.23-0.89,0.49-1.77,0.76-2.63c0.15-0.48,0.29-0.96,0.44-1.46&#xD;&#xA;		c0.06-0.22,0.12-0.43,0.17-0.64c0.87-3.22,1.34-6.65-0.68-9.17c-0.53-0.67-1.19-1.2-1.94-1.65c-0.48-0.28-0.99-0.53-1.51-0.74&#xD;&#xA;		l-0.07-0.04c-1.47-0.58-3.12-0.9-4.73-0.83c-0.02-0.01-0.03,0-0.05,0l-0.02,0c-0.3-3.84-0.52-7.72-0.72-11.57&#xD;&#xA;		c-0.45-7.99-0.83-15.96-0.55-23.94c0.43-11.64,2.29-23.22,5.58-34.4c0.01,0.05,0.03,0.1,0.04,0.15c2.6,10.4,5.31,21.07,11.41,29.86&#xD;&#xA;		c1.8,2.61,3.84,4.98,6.05,7.19c2.79,2.81,5.82,5.36,8.99,7.82c5,3.99,10.27,7.66,15.18,11.7c7.13,5.89,13.53,12.64,18.99,20.06&#xD;&#xA;		l0.01,0.02l0.01,0l-0.01,0.02c0.71,0.95,1.41,1.92,2.08,2.91c0.29,0.39,0.56,0.8,0.83,1.2c0.58,0.86,1.16,1.73,1.72,2.62&#xD;&#xA;		c0.42,0.69,0.86,1.37,1.26,2.07c0.35,0.57,0.71,1.14,1.04,1.73c0.42,0.72,0.84,1.47,1.24,2.21c0.08,0.14,0.16,0.27,0.23,0.41&#xD;&#xA;		l-23.28,47.27c-3.59,1.56-6.81,3.85-9.6,6.62C328.68,318.63,328.86,318.17,329.04,317.7z"/>
	<path class="st9" d="M295.13,264.91c0.07-0.44,0.16-0.88,0.25-1.33C295.29,264.02,295.2,264.46,295.13,264.91z"/>
	<path class="st9" d="M294.89,268.96c0.01,0.19,0.03,0.36,0.07,0.55c-0.03-0.19-0.04-0.38-0.06-0.59c-0.09-1.34,0.01-2.68,0.23-4.01&#xD;&#xA;		C294.91,266.24,294.81,267.6,294.89,268.96z"/>
	<path class="st9" d="M292.86,245.99c-1.51-0.59-3.18-0.91-4.79-0.83l-0.02,0c0,0.01,0,0.01,0,0.03c1.62-0.08,3.29,0.26,4.79,0.83&#xD;&#xA;		c1.34,0.55,2.62,1.29,3.5,2.4c2.14,2.68,1.48,6.39,0.55,9.79c0.97-3.39,1.63-7.12-0.51-9.8&#xD;&#xA;		C295.49,247.29,294.21,246.55,292.86,245.99z"/>
	<path class="st9" d="M299.05,277.03c-0.48-0.34-0.93-0.72-1.33-1.15c0.38,0.44,0.83,0.83,1.33,1.17c2.6,1.76,6.56,1.6,8.56-0.8&#xD;&#xA;		C305.57,278.62,301.64,278.8,299.05,277.03z"/>
	<path class="st9" d="M307.61,276.24c0.74-0.91,1.21-2,1.95-2.91c0.14-0.18,0.31-0.35,0.48-0.51c-0.17,0.14-0.33,0.29-0.5,0.49&#xD;&#xA;		C308.8,274.2,308.33,275.33,307.61,276.24z"/>
	<path class="st9" d="M311.78,271.78c-0.64,0.22-1.23,0.57-1.73,1.04C310.54,272.36,311.14,272.02,311.78,271.78z"/>
	<path class="st9" d="M312.43,271.57c1.34-0.32,2.79-0.22,4.12,0.27C315.2,271.36,313.74,271.23,312.43,271.57z"/>
	<path class="st9" d="M319.37,273.76c-0.14-0.17-0.3-0.34-0.48-0.48c0.17,0.16,0.32,0.32,0.48,0.5L319.37,273.76z"/>
	<path class="st9" d="M316.98,302.15c0.09,0.11,0.19,0.24,0.3,0.34c0.28,0.28,0.6,0.54,0.94,0.78c-0.35-0.25-0.66-0.51-0.94-0.8&#xD;&#xA;		C317.18,302.37,317.07,302.27,316.98,302.15z"/>
	<path class="st9" d="M330.93,299.26c-2.35,0.49-3.63,3.04-5.64,4.37c-1.59,1-3.6,1.08-5.4,0.47c1.78,0.63,3.82,0.55,5.43-0.45&#xD;&#xA;		c2.03-1.31,3.29-3.87,5.62-4.37c0.66-0.14,1.3-0.08,1.89,0.13C332.22,299.18,331.59,299.11,330.93,299.26z"/>
	<path class="st9" d="M361.21,264.81c-0.41-0.74-0.82-1.48-1.24-2.21c-0.33-0.57-0.67-1.15-1.04-1.73c-0.4-0.7-0.84-1.39-1.26-2.07&#xD;&#xA;		c-0.56-0.89-1.14-1.76-1.72-2.62c-0.27-0.4-0.55-0.82-0.83-1.2c-0.67-0.99-1.37-1.96-2.08-2.91l0-0.02l0-0.05&#xD;&#xA;		c-5.5-7.42-11.85-14.16-18.97-20.04c-4.91-4.07-10.2-7.73-15.19-11.71c-0.05-0.57-0.07-1.15-0.08-1.76&#xD;&#xA;		c-0.06-2.05,0.19-4.2,1.35-5.88c1.04-1.48,2.95-2.47,4.67-2.05c0.22,0.04,0.43,0.11,0.64,0.22c-0.55-3.18-0.88-6.92,1.35-9.26&#xD;&#xA;		c1.72-1.77,4.5-2.19,6.85-1.48c0.3,0.08,0.6,0.18,0.89,0.32c0.43,0.17,0.86,0.37,1.26,0.6c0.55,0.31,1.07,0.68,1.56,1.07&#xD;&#xA;		c-0.11,1.17-0.21,2.35-0.28,3.53c-0.2,3.77-0.13,7.6,0.39,11.35c0.43,2.95,1.14,5.87,2.24,8.64c1.47,3.71,3.62,7.16,6.01,10.36&#xD;&#xA;		c2.38,3.19,4.98,6.2,7.86,8.96c-0.03,0.22-0.05,0.47-0.07,0.68c0.04-0.21,0.05-0.44,0.08-0.66c1.12,1.11,2.26,2.15,3.44,3.17&#xD;&#xA;		c0.01,1.07,0.01,2.16,0.09,3.22c0.27,4.65,2,9.19,4.85,12.86l-0.53,1.09C361.37,265.07,361.29,264.94,361.21,264.81z"/>
	<path class="st9" d="M223.89,353.45c1.49,2.37,3.78,4.1,6.2,5.44c6.55,3.61,14.54,4.47,21.73,2.34&#xD;&#xA;		c-2.41-4.92-3.88-10.29-4.27-15.77c6.29,1.81,12.73,3.67,19.26,3.31c2.1-0.12,4.15-0.45,6.22-0.91&#xD;&#xA;		c-14.3-2.23-28.06-8.09-39.55-16.9c-2.07,0.2-4.19,0.83-5.24,2.57c-1.47,2.42-0.11,5.5,1.24,8c-2.74-0.5-5.57,1.42-6.57,3.98&#xD;&#xA;		C221.86,348.08,222.44,351.11,223.89,353.45z"/>
	<path class="st9" d="M300.54,386.36c-0.19-0.45-0.36-0.91-0.53-1.37c-0.15-0.42-0.29-0.84-0.42-1.27c-0.01-0.06-0.04-0.13-0.06-0.2&#xD;&#xA;		c-0.01-0.04-0.02-0.08-0.03-0.12c-0.11-0.4-0.23-0.82-0.33-1.22c-0.01-0.02-0.01-0.04-0.02-0.05l-0.24,0.08&#xD;&#xA;		c0.07-0.03,0.14-0.05,0.21-0.08c-0.11-0.42-0.21-0.84-0.29-1.27c-0.12-0.56-0.23-1.14-0.32-1.71c0-0.06-0.01-0.11-0.02-0.17&#xD;&#xA;		c-0.07-0.48-0.14-0.97-0.18-1.45c-0.01-0.06-0.02-0.12-0.02-0.18c-0.05-0.51-0.08-1.03-0.11-1.55c-0.02-0.38-0.03-0.76-0.03-1.14&#xD;&#xA;		c0-0.2,0-0.41,0-0.61c0-0.08,0-0.16,0-0.23c0-0.01,0-0.02,0-0.03c0-0.16,0-0.32,0.02-0.47c0.01-0.31,0.02-0.63,0.04-0.93&#xD;&#xA;		c0.02-0.34,0.05-0.67,0.08-1c0.03-0.27,0.07-0.55,0.1-0.82c0.03-0.24,0.06-0.49,0.11-0.74c0.04-0.28,0.09-0.56,0.15-0.84&#xD;&#xA;		c0.01-0.09,0.04-0.19,0.05-0.29c0.01-0.09,0.03-0.18,0.06-0.27c0.04-0.19,0.08-0.39,0.12-0.56c0.08-0.37,0.17-0.74,0.28-1.11&#xD;&#xA;		c0.12-0.43,0.25-0.85,0.39-1.27c0.14-0.41,0.29-0.83,0.44-1.24c0.31-0.82,0.67-1.62,1.05-2.41l0.16-0.32&#xD;&#xA;		c0.03-0.06,0.06-0.13,0.1-0.18c0.06-0.12,0.11-0.22,0.18-0.34c0.13-0.24,0.26-0.48,0.39-0.7c0.14-0.23,0.28-0.48,0.42-0.71&#xD;&#xA;		c0.01-0.03,0.04-0.06,0.05-0.09c0.23-0.38,0.47-0.75,0.73-1.11c0.27-0.4,0.55-0.79,0.83-1.17c0.18-0.25,0.36-0.49,0.56-0.73&#xD;&#xA;		c0.2-0.24,0.39-0.48,0.59-0.71c0.2-0.24,0.4-0.47,0.61-0.69c0.2-0.23,0.42-0.46,0.63-0.68c0.44-0.45,0.88-0.9,1.33-1.33&#xD;&#xA;		c0.21-0.21,0.43-0.4,0.66-0.6c0.22-0.2,0.46-0.41,0.7-0.6c0.14-0.13,0.3-0.25,0.45-0.38c0.33-0.26,0.66-0.52,0.99-0.77&#xD;&#xA;		c1.97-1.48,4.1-2.74,6.35-3.72l0.01-0.02c-0.07-4.15,0.58-8.26,1.9-12.19c-1.99-3.03-5.65-4.93-9.24-4.66&#xD;&#xA;		c-0.1,0.02-0.19,0.03-0.29,0.04c-0.04,0-0.08,0.01-0.12,0.02c-0.29,0.03-0.59,0.07-0.87,0.13c-0.16,0.03-0.33,0.07-0.48,0.12&#xD;&#xA;		c-0.05,0.01-0.1,0.02-0.14,0.03c-0.21,0.05-0.41,0.11-0.61,0.18c-0.28,0.1-0.56,0.19-0.83,0.3c-0.28,0.11-0.55,0.23-0.81,0.36&#xD;&#xA;		c-0.11,0.04-0.21,0.09-0.3,0.13c-0.13,0.06-0.25,0.11-0.37,0.19c-0.04,0.03-0.08,0.05-0.12,0.07c-0.05,0.03-0.11,0.06-0.16,0.09&#xD;&#xA;		c-0.03,0.01-0.05,0.03-0.08,0.04c-0.02,0.01-0.04,0.02-0.06,0.04c-0.16,0.09-0.33,0.18-0.49,0.27c-0.53,0.29-1.05,0.61-1.55,0.94&#xD;&#xA;		c-0.53,0.32-1.03,0.66-1.52,1.01c-0.21,0.14-0.42,0.26-0.62,0.41c-0.03,0.02-0.07,0.05-0.1,0.06c-0.03,0.02-0.05,0.04-0.08,0.06&#xD;&#xA;		c-0.27,0.18-0.53,0.36-0.8,0.53c-0.48,0.32-0.97,0.64-1.46,0.94c-0.29,0.17-0.57,0.33-0.86,0.49c-0.2,0.12-0.42,0.24-0.64,0.35&#xD;&#xA;		c-0.07,0.05-0.14,0.08-0.21,0.11c-0.05,0.03-0.1,0.05-0.16,0.08c-0.12,0.06-0.25,0.12-0.38,0.18c-0.21,0.1-0.42,0.19-0.63,0.29&#xD;&#xA;		c-0.17,0.06-0.32,0.13-0.48,0.19c-0.42,0.15-0.84,0.29-1.26,0.39c-0.27,0.07-0.54,0.12-0.8,0.15c-0.21,0.03-0.41,0.07-0.61,0.07&#xD;&#xA;		c-0.01,0-0.01,0-0.02,0c-0.02,0-0.04,0-0.06,0c-0.07,0.01-0.15,0.01-0.23,0.02c-0.23,0.01-0.45,0.01-0.68,0&#xD;&#xA;		c-2.19-0.08-4.43-1.24-5.28-3.24c-0.06-0.14-0.11-0.29-0.16-0.44c-0.01-0.03-0.01-0.05-0.02-0.08c0-0.01,0-0.01-0.01-0.03&#xD;&#xA;		c0-0.01,0-0.02-0.01-0.04c-0.01-0.07-0.03-0.17-0.05-0.25c0.07,0.25,0.16,0.5,0.25,0.75c0.17,0.38,0.38,0.73,0.63,1.05&#xD;&#xA;		c0.07,0.09,0.14,0.17,0.21,0.25c0.09,0.1,0.17,0.2,0.27,0.28c0.07,0.08,0.17,0.16,0.26,0.23c0.08,0.07,0.16,0.13,0.25,0.19&#xD;&#xA;		c0.05,0.05,0.11,0.09,0.18,0.12c0,0.01,0.02,0.02,0.04,0.03c0.07,0.06,0.16,0.11,0.25,0.16c0,0.01,0.02,0.03,0.04,0.03&#xD;&#xA;		c0.01,0.02,0.03,0.03,0.05,0.03c0.13,0.08,0.26,0.16,0.41,0.23l0.03,0.01c0.13,0.07,0.29,0.12,0.43,0.18&#xD;&#xA;		c0.04,0.02,0.09,0.04,0.14,0.06c0.11,0.04,0.23,0.08,0.35,0.11c0.03,0.01,0.06,0.02,0.09,0.02c0.09,0.02,0.18,0.04,0.27,0.07&#xD;&#xA;		c0.07,0.02,0.13,0.04,0.2,0.05c0.2,0.04,0.39,0.08,0.6,0.1c0.2,0.03,0.4,0.04,0.6,0.05c2.17,0.08,4.28-0.74,6.17-1.83&#xD;&#xA;		c4.19-2.34,7.94-6.02,12.74-6.43c0.2-0.01,0.39-0.03,0.58-0.03c0.19-0.01,0.39,0,0.59,0.01c0.2,0.01,0.4,0.02,0.6,0.05&#xD;&#xA;		c0.2,0.02,0.4,0.04,0.6,0.09c0.13,0.02,0.26,0.05,0.39,0.08c0.3,0.06,0.6,0.14,0.89,0.24c0.04,0.01,0.09,0.03,0.12,0.05&#xD;&#xA;		c0.05,0.01,0.1,0.03,0.14,0.05c0.03,0,0.07,0.01,0.11,0.03c0.18,0.07,0.36,0.13,0.54,0.21c0.4,0.16,0.77,0.36,1.14,0.56&#xD;&#xA;		c0.19,0.12,0.37,0.23,0.55,0.34c0.33,0.22,0.65,0.45,0.94,0.71c0.1,0.08,0.21,0.17,0.31,0.26c0.31,0.28,0.61,0.58,0.88,0.89&#xD;&#xA;		c0.15,0.16,0.29,0.34,0.42,0.52c0.15,0.19,0.29,0.39,0.41,0.58c0.01-0.02,0.01-0.03,0.01-0.05c0.12-0.36,0.26-0.73,0.4-1.08&#xD;&#xA;		c0.07-0.21,0.15-0.41,0.23-0.61c0.15-0.37,0.31-0.74,0.47-1.11c0.07-0.17,0.15-0.36,0.23-0.52c0.08-0.17,0.15-0.35,0.23-0.52&#xD;&#xA;		c0,0,0,0-0.01-0.02c0.13-0.29,0.27-0.58,0.41-0.86c0.24-0.49,0.49-0.97,0.76-1.44c0.04-0.09,0.08-0.17,0.13-0.25&#xD;&#xA;		c0.18-0.34,0.37-0.66,0.56-0.97c0.12-0.21,0.25-0.42,0.38-0.63c0.22-0.36,0.44-0.72,0.68-1.07c0.3-0.45,0.61-0.9,0.93-1.34&#xD;&#xA;		c0.06-0.1,0.13-0.19,0.2-0.29c0.25-0.38,0.52-0.69,0.79-1.07c1.07-1.36,2.21-2.63,3.46-3.8c0.13-0.46,0.29-0.94,0.49-1.4&#xD;&#xA;		c-0.18,0.48-0.35,0.93-0.47,1.42c2.79-2.77,6.01-5.05,9.6-6.62l-37.04,75.2C300.92,387.25,300.72,386.82,300.54,386.36z"/>
	<path class="st9" d="M333.3,299.59c-0.14-0.07-0.29-0.13-0.43-0.18c-0.59-0.23-1.22-0.29-1.89-0.15c-2.35,0.49-3.63,3.04-5.64,4.37&#xD;&#xA;		c-1.59,1-3.6,1.08-5.4,0.47c-0.19-0.07-0.39-0.14-0.57-0.22c-0.37-0.18-0.73-0.37-1.07-0.58c0,0,0.01-0.02-0.01-0.02&#xD;&#xA;		c-0.35-0.25-0.66-0.51-0.94-0.8c-0.1-0.11-0.21-0.2-0.3-0.32c-0.11-0.12-0.19-0.22-0.28-0.32l0-0.02&#xD;&#xA;		c-0.25-0.36-0.49-0.73-0.71-1.12c-0.2-0.39-0.38-0.78-0.52-1.2c-0.17-0.56-0.3-1.13-0.37-1.72c-0.03-0.32-0.07-0.66-0.06-1&#xD;&#xA;		c-0.05-0.81,0.06-1.63,0.26-2.43c0.91-3.66,3.71-6.51,5.16-9.96c0.25-0.6,0.46-1.22,0.62-1.87c0.72-3.04,0.32-6.38-1.71-8.72&#xD;&#xA;		l0-0.02c-0.14-0.17-0.3-0.34-0.48-0.48c-0.67-0.63-1.49-1.12-2.37-1.44c-1.34-0.49-2.8-0.61-4.12-0.27&#xD;&#xA;		c-0.23,0.04-0.44,0.13-0.66,0.2c-0.64,0.22-1.23,0.57-1.73,1.04c-0.17,0.14-0.33,0.29-0.5,0.49c-0.74,0.89-1.22,2.02-1.93,2.93&#xD;&#xA;		l0,0.02c-2.04,2.36-5.97,2.54-8.57,0.79c-0.48-0.34-0.93-0.72-1.33-1.15c-0.14-0.15-0.26-0.28-0.38-0.44c-1.23-1.5-2-3.43-2.3-5.37&#xD;&#xA;		c-0.04-0.21-0.06-0.4-0.07-0.59c-0.03-0.19-0.04-0.38-0.06-0.59c-0.09-1.34,0.01-2.68,0.23-4.01c0.07-0.44,0.16-0.88,0.25-1.33&#xD;&#xA;		c0.09-0.43,0.19-0.86,0.3-1.28c0.23-0.89,0.49-1.77,0.76-2.63c0.15-0.48,0.29-0.96,0.44-1.46c0.97-3.39,1.63-7.12-0.51-9.8&#xD;&#xA;		c-0.89-1.12-2.17-1.86-3.52-2.43c-1.51-0.59-3.18-0.91-4.79-0.83l-0.02,0c-1.79,0.02-3.5,0.58-4.9,1.72&#xD;&#xA;		c-0.53,0.43-0.99,0.94-1.4,1.52c0,0.02-0.02,0.01-0.02,0.04c-1.26,1.76-1.98,3.92-2.98,5.85c-1.28,2.58-3.82,5.09-6.68,4.56&#xD;&#xA;		c-1.35-0.26-2.49-1.21-3.47-2.18c-4.89-4.84-8.15-11.67-14.44-14.49c-3.84-1.73-8.61-1.55-11.99,0.9c-3.4,2.47-5,7.36-3.29,11.2&#xD;&#xA;		c2.93,6.5,12.64,6.9,16.82,12.72c1.32,1.87,1.93,4.59,0.55,6.45c-1.24,1.68-3.66,2.02-5.73,1.81c-2.07-0.21-4.15-0.84-6.23-0.58&#xD;&#xA;		c-3.93,0.54-6.94,4.4-7.12,8.37c-0.16,3.98,2.07,7.8,5.21,10.25c0.55,0.43,1.16,0.83,1.8,1.17l0.02-0.01&#xD;&#xA;		c1.62,0.87,3.49,1.33,5.26,0.87c0.67-0.18,1.29-0.46,1.9-0.77c0.25-0.13,0.45-0.25,0.68-0.37c2.83-1.59,5.65-3.15,8.49-4.72&#xD;&#xA;		c3.4-1.87,7.51-3.8,10.96-2c1.45,0.76,2.53,2.06,3.39,3.43c1.27,1.96,2.23,4.51,1.12,6.59c-0.46,0.93-1.2,1.54-2.07,1.94&#xD;&#xA;		c-0.04,0.01-0.06,0.04-0.1,0.05c-2.13,0.98-5.08,0.92-7.51,1.51c-3.42,0.8-6.21,3.44-7.5,6.68c-0.34,0.77-0.56,1.59-0.67,2.4&#xD;&#xA;		c-0.07,0.39-0.12,0.78-0.12,1.18c-0.02,0.59,0.01,1.19,0.08,1.76c0.57,4.08,3.45,7.75,7.31,9.26c4.41,1.69,9.73,0.45,13.04-2.95&#xD;&#xA;		c1.28-1.34,2.29-2.92,3.73-4.05c1.92-1.46,4.46-1.92,6.85-1.72c2.54,0.24,5.14,1.23,6.77,3.23c0.85,1.06,1.35,2.44,1.36,3.81&#xD;&#xA;		c0.01,0.44-0.03,0.89-0.13,1.33c-0.05,0.26-0.13,0.51-0.22,0.74c-0.07,0.2-0.18,0.4-0.28,0.62c-0.13,0.22-0.28,0.43-0.44,0.63&#xD;&#xA;		c-1.62,1.96-4.47,2.27-6.81,3.37c-2.02,0.95-3.75,2.86-4.21,4.95c-0.1,0.46-0.16,0.95-0.13,1.42c0.01,0.24,0.04,0.51,0.09,0.76&#xD;&#xA;		c0.06,0.24,0.15,0.5,0.25,0.75c0.86,2.02,3.11,3.16,5.28,3.24c2.17,0.08,4.28-0.74,6.17-1.83c4.19-2.34,7.93-6.04,12.73-6.44&#xD;&#xA;		c3.58-0.29,7.25,1.61,9.23,4.64c0.45-1.34,0.99-2.66,1.58-3.89c0,0,0,0-0.01-0.02c1.13-2.42,2.46-4.71,4.04-6.85&#xD;&#xA;		c0.25-0.38,0.51-0.7,0.79-1.07c1.07-1.36,2.21-2.63,3.46-3.8c0.12-0.47,0.29-0.94,0.49-1.4c0,0,0,0,0-0.02&#xD;&#xA;		c0.2-0.45,0.42-0.89,0.67-1.34c0.49-0.88,1.09-1.75,1.7-2.55c0.17-0.21,0.33-0.43,0.51-0.64c1.2-1.53,2.47-3.06,3.3-4.75&#xD;&#xA;		c0.44-0.89,0.76-1.82,0.9-2.81C336.48,303.25,335.19,300.59,333.3,299.59z"/>
	<path class="st9" d="M223.79,199.98c4.81,3.92,10.72,6.48,16.88,7.39c-4.04-5.67-7.55-11.76-10.47-18.09l-1.14-3.17&#xD;&#xA;		c-1-5.35-4.56-10.16-9.37-12.68c-1.83-0.97-4.12-1.57-5.91-0.56c-2.42,1.41-2.47,4.88-1.9,7.6&#xD;&#xA;		C213.51,188.08,217.76,195.08,223.79,199.98z"/>
	<path class="st9" d="M240.64,207.38c1.07,1.5,2.17,2.97,3.29,4.41c3.99,5.05,8.4,9.75,12.84,14.38c0.37,0.4,0.77,0.79,1.16,1.21&#xD;&#xA;		c4.29,4.42,8.65,8.85,13.31,12.91c3.35,2.95,6.85,5.7,10.54,8.16"/>
	<path class="st9" d="M268.98,222.03c0.12-1.2,0.33-2.38,0.64-3.54c1.23-4.63,4.04-8.71,5.91-13.14c1.9-4.44,2.76-9.81,0.17-13.87&#xD;&#xA;		c-0.53-0.82-1.22-1.6-2.09-2.05c-0.96-0.5-2.09-0.58-3.15-0.42c-3.46,0.54-6.04,3.73-6.87,7.13c-0.83,3.39-0.26,6.96,0.53,10.36&#xD;&#xA;		C265.32,211.79,266.96,217,268.98,222.03z"/>
	<path class="st9" d="M268.99,222.05c-0.38,3.84,0.07,7.77,0.74,11.59c0.4,2.22,0.85,4.48,1.52,6.62"/>
	<path class="st9" d="M224.36,228.88c0.58,0.46,1.29,0.55,2.03,0.59c6.48,0.34,12.48-3.3,18.89-4.4c-0.93-0.36-1.86-0.67-2.8-0.97&#xD;&#xA;		c-4.92-1.46-10.25-1.94-15.14-0.43c-1.16,0.37-2.36,0.89-3.11,1.86C223.49,226.52,223.39,228.1,224.36,228.88z"/>
	<path class="st9" d="M245.25,225.07c0.31-0.08,0.61-0.12,0.93-0.17c3.57-0.47,7.23-0.01,10.58,1.25"/>
	<path class="st10" d="M322.04,345.23c-1.8,0.42-3.56,1.02-5.26,1.77"/>
</g>
<path class="st11" d="M414.11,152.45c-1.58,7.1-5.53,13.84-8.63,20.54c-2.93,6.33-5.16,12.92-6.86,19.68&#xD;&#xA;	c-6.96-0.98-13.69-3.64-19.34-7.83c-9.09-6.73-15.23-17.28-16.75-28.47c6.2-0.69,13.64-1.19,16.47-5.38&#xD;&#xA;	c1.81-2.68,2.68-5.76,3.02-8.98c4.01,3.03,8.78,4.54,13.59,4.57h0.02c4.29-0.04,8.56-1.25,12.27-3.67c0.6-0.39,1.18-0.81,1.75-1.26&#xD;&#xA;	c0.04,0.4,0.08,0.79,0.14,1.19c0.4,2.92,1.27,5.7,2.92,8.15C413.07,151.53,413.55,152.02,414.11,152.45z"/>
<path class="st11" d="M344.07,160.58c-1.85,0.69-3.63,1.53-5.29,2.61c-7.2,4.67-11.07,13.02-13.66,21.19&#xD;&#xA;	c-2.35,7.43-3.96,15.09-4.79,22.84c-1.82,17.03,0.1,34.46-3.64,51.18c-4.11,18.39-14.76,34.57-25.75,49.87&#xD;&#xA;	c-7.94,11.05-18.11,22.94-31.72,23.18c-11.14,0.2-22.21-7.75-32.75-4.1c-1.47,0.51-2.93,1.63-3.76,2.93&#xD;&#xA;	c-1.04-0.31-2.3-0.08-3.18,0.6c-1.39,1.08-1.96,2.93-2.1,4.69c-0.3,3.75,1.12,7.61,3.78,10.28c0.29,0.29,0.6,0.57,0.91,0.83&#xD;&#xA;	c-2.7,0.12-5.41,0.1-8.11-0.04c-0.9-0.05-1.85-0.1-2.66,0.31c-1.57,0.8-1.82,3.13-0.9,4.63c0.93,1.5,2.65,2.32,4.33,2.85&#xD;&#xA;	c5.07,1.59,10.46,1.26,15.77,0.52c-1.51,1-3.01,2.01-4.52,3.01c-1.73,1.15-3.67,2.71-3.48,4.78c0.16,1.85,2.11,3.13,3.97,3.22&#xD;&#xA;	c1.86,0.09,3.64-0.69,5.34-1.44c8.59-3.74,17.46-6.89,26.27-10.14l0,0c11.3-4.17,22.51-8.52,32.92-14.54&#xD;&#xA;	c6.14-3.55,11.95-7.68,17.34-12.3c0,0,0,0,0,0c11.81-10.12,21.62-22.59,28.58-36.51c2.65-5.29,4.87-10.74,6.76-16.31&#xD;&#xA;	C345.38,256.91,350.07,199.17,344.07,160.58z M232.45,342.44c-3.79,1.34-8.4-2.09-8.21-6.11c0.02-0.36,0.06-0.72,0.12-1.09&#xD;&#xA;	c2.14,0.68,5.05-0.38,7.4-1.2c1.31-0.46,2.74-0.43,4.15-0.05C237.2,337.06,235.69,341.29,232.45,342.44z"/>
<path class="st11" d="M592.81,345.65c-0.93,1.5-2.65,2.32-4.33,2.85c-1.39,0.44-2.81,0.73-4.24,0.91c-0.06-1.02-0.53-1.98-1.43-2.45&#xD;&#xA;	c-0.8-0.41-1.76-0.36-2.66-0.31c-6.29,0.33-12.62-0.04-18.83-1.1c-0.23-0.04-0.45-0.08-0.68-0.12l0.43-0.16l13.85-5.02h0&#xD;&#xA;	c4.75,0.55,9.55,0.71,14.33,0.45c0.9-0.05,1.85-0.1,2.66,0.31C593.49,341.82,593.74,344.14,592.81,345.65z"/>
<path class="st11" d="M583.71,351.59c-0.93,1.5-2.65,2.32-4.33,2.85c-5.07,1.59-10.46,1.26-15.77,0.52c1.51,1,3.01,2.01,4.52,3.01&#xD;&#xA;	c1.73,1.15,3.67,2.71,3.48,4.78c-0.16,1.85-2.11,3.13-3.97,3.22c-1.86,0.09-3.64-0.69-5.34-1.44c-8.59-3.74-17.46-6.89-26.27-10.14&#xD;&#xA;	c-0.01-0.01-0.02-0.02-0.03-0.03l24.65-8.94h0c0.23,0.04,0.45,0.08,0.68,0.12c6.21,1.06,12.54,1.44,18.83,1.1&#xD;&#xA;	c0.9-0.05,1.85-0.1,2.66,0.31c0.9,0.46,1.37,1.42,1.43,2.45C584.28,350.16,584.1,350.95,583.71,351.59z"/>
<path class="st11" d="M426.34,106.8c-0.63,1.45-1.75,2.88-3.47,3.36c-0.33,0.09-0.68,0.13-1.04,0.13c0.07,2.16,0,4.33-0.23,6.48&#xD;&#xA;	c-0.39,3.74-1.23,7.41-2.5,10.88c-1.78,4.85-4.43,9.33-7.94,12.67c-0.46,0.44-0.94,0.86-1.42,1.25c-0.04,0-0.07,0-0.11,0&#xD;&#xA;	c0,0.03,0,0.05,0.01,0.08c-0.57,0.45-1.15,0.87-1.75,1.26c-3.71,2.42-7.98,3.63-12.27,3.67h-0.02c-4.81-0.04-9.58-1.55-13.59-4.57&#xD;&#xA;	c-0.68-0.52-1.35-1.08-1.98-1.68c-3.51-3.34-6.16-7.82-7.94-12.67c-1.27-3.46-2.11-7.14-2.5-10.88v0c-0.22-2.15-0.3-4.32-0.23-6.48&#xD;&#xA;	c-0.35,0.01-0.7-0.03-1.04-0.13c-1.72-0.48-2.85-1.91-3.48-3.36c-0.65-1.51-0.91-3.14-0.75-4.74c0.12-1.15,0.47-2.33,1.35-3.21&#xD;&#xA;	c0.87-0.88,2.35-1.4,3.63-1.02c0.14,0.04,0.27,0.09,0.4,0.16c-0.73-4.93-0.93-13.23,4.14-19.56c1.12-1.39,2.65-2.32,4.32-2.69&#xD;&#xA;	c-2.35,5.33-2.51,11.67-0.08,16.99c1.1,2.39,2.81,4.69,5.28,5.59c-4.55-5.18-5.19-13.02-2.85-19.5c0.37-1.02,0.82-2.04,1.38-2.98&#xD;&#xA;	c8.38,2.14,17.33,1.98,25.62-0.46c0.35-0.1,0.7-0.21,1.06-0.33c2.75-0.9,5.78-0.21,7.83,1.83c6.49,6.47,6.32,15.77,5.53,21.11&#xD;&#xA;	c0.13-0.06,0.26-0.12,0.4-0.16c1.28-0.38,2.76,0.14,3.63,1.02c0.87,0.88,1.23,2.06,1.35,3.21&#xD;&#xA;	C427.25,103.66,426.99,105.29,426.34,106.8z"/>
<path class="st11" d="M486.85,353.01c-0.55,0.53-1.26,0.85-1.96,1.15c-4.56,1.34-11.05,3.46-18.9,6.1c0,0,0,0-0.01,0&#xD;&#xA;	c-21.71,7.31-53.77,18.65-83.82,28.74c-4.28,1.44-8.53,2.85-12.69,4.23c-1.64-2.7-3.06-5.53-4.24-8.46&#xD;&#xA;	c-3.52-8.68-4.98-18.21-4.1-27.53c7.49,0.61,14.96,1.34,22.38,2.05c3.56,0.34,7.34,0.6,10.98,0.36c5.33-0.34,10.37-1.74,14.04-5.48&#xD;&#xA;	c3.71-3.78,5.45-9.54,10.1-12.07c3.97-2.16,8.95-1.25,13.06,0.64c4.11,1.89,7.78,4.68,11.97,6.38c10.1,4.1,21.6,1.35,31.92-2.15&#xD;&#xA;	c2.84-0.96,5.92-1.98,8.75-1.01C487.16,346.92,489.01,350.93,486.85,353.01z"/>
<path class="st12" d="M421.79,116.53c-0.06,0.08-0.13,0.16-0.19,0.24c0.22-2.15,0.3-4.32,0.23-6.48c0.35,0.01,0.7-0.03,1.04-0.13&#xD;&#xA;	c1.72-0.48,2.85-1.91,3.47-3.36c0.65-1.51,0.91-3.14,0.75-4.74c-0.12-1.15-0.47-2.33-1.35-3.21c-0.87-0.88-2.35-1.4-3.63-1.02&#xD;&#xA;	c-0.14,0.04-0.27,0.09-0.4,0.16c0.79-5.34,0.96-14.64-5.53-21.11c-2.05-2.04-5.08-2.74-7.83-1.83c-0.35,0.12-0.7,0.22-1.06,0.33&#xD;&#xA;	c-8.29,2.44-17.25,2.6-25.62,0.46c-0.56,0.94-1.01,1.96-1.38,2.98c-2.33,6.49-1.7,14.32,2.85,19.5c-2.48-0.89-4.19-3.19-5.28-5.59&#xD;&#xA;	c-2.43-5.32-2.27-11.66,0.08-16.99c-1.67,0.37-3.21,1.3-4.32,2.69c-5.07,6.34-4.87,14.63-4.14,19.56c-0.12-0.06-0.26-0.12-0.4-0.16&#xD;&#xA;	c-1.28-0.38-2.76,0.14-3.63,1.02c-0.87,0.88-1.23,2.06-1.35,3.21c-0.16,1.6,0.09,3.23,0.75,4.74c0.63,1.45,1.75,2.88,3.48,3.36&#xD;&#xA;	c0.33,0.09,0.68,0.13,1.04,0.13c-0.07,2.16,0,4.33,0.23,6.48c-0.06-0.08-0.13-0.15-0.19-0.23c-6.32-7.8-10.78-17.27-10.22-26.97&#xD;&#xA;	c0.68-11.89,9.86-22.74,21.79-27.27c-1.99-2.4-3.33-5.35-3.74-8.44c-0.66-4.98,1.09-10.22,4.61-13.8c1.74-1.78,3.98-3.18,6.45-3.49&#xD;&#xA;	c1.89-0.24,3.81,0.17,5.57,0.89c4.62,1.87,8.29,5.94,9.69,10.72c2.96-2.4,7.65-0.03,9.4,3.36c1.87,3.61,1.36,8.13-0.79,11.55&#xD;&#xA;	c10.98,4.91,19.21,15.22,19.86,26.47C432.57,99.26,428.11,108.73,421.79,116.53z"/>
<g id="Capa_2">
</g>
<g id="Capa_1">
</g>
<path class="st2" d="M235.91,333.98c2.71,0.72,5.35,2.7,6.93,4.87"/>
<path class="st2" d="M237.73,344.56c-5.13,1.19-10.37,1.91-15.62,2.13"/>
<path class="st2" d="M240.82,348.12c-3.42,2.28-6.85,4.56-10.27,6.85"/>
<path class="st6" d="M393.44,315.96c-15.23-0.35-30.43-2.83-45.25-6.48c-4-0.99-8.09-2.11-11.57-4.25&#xD;&#xA;	c4.32-8.17,5.93-17.9,6.82-27.24c0.08-0.85,0.18-1.95,0.3-3.25c1.63-17.82,6.32-75.56,0.32-114.15c4.27-1.59,8.9-2.38,13.36-3.43&#xD;&#xA;	c1.48-0.35,3.23-0.58,5.09-0.79c1.52,11.19,7.66,21.74,16.75,28.47c5.65,4.19,12.38,6.85,19.34,7.83&#xD;&#xA;	c-4.2,16.7-5.16,34.44-5.49,51.82C392.88,258.04,392.99,287.51,393.44,315.96z"/>
<path class="st7" d="M393.44,315.96c-15.23-0.35-30.43-2.83-45.25-6.48c-4-0.99-8.09-2.11-11.57-4.25c-1.45,2.74-3.19,5.3-5.32,7.61&#xD;&#xA;	c-4.11,4.47-9.37,7.71-14.72,10.59c-2.69,1.45-5.42,2.82-8.18,4.14c0,0,0,0,0,0c-5.39,4.62-11.2,8.75-17.34,12.3&#xD;&#xA;	c-10.41,6.02-21.62,10.37-32.92,14.54l0,0c-1.48,1.35-2.89,2.78-4.2,4.31c-6.46,7.52-10.42,17.71-8.51,27.43&#xD;&#xA;	c2.44,12.42,13.97,21.49,26.23,24.68c12.25,3.19,25.19,1.59,37.7-0.37c11.46-1.79,34.32-8.74,60.11-17.24&#xD;&#xA;	c-1.64-2.7-3.06-5.53-4.24-8.46c-3.52-8.68-4.98-18.21-4.1-27.53c7.49,0.61,14.96,1.34,22.38,2.05c3.56,0.34,7.34,0.6,10.98,0.36&#xD;&#xA;	C394.03,347.35,393.68,331.81,393.44,315.96z M298.09,358.51c-2.21-0.51-4.37-1.23-6.44-2.15c-2.21-0.98-4.41-2.28-5.69-4.33&#xD;&#xA;	c-1.28-2.06-1.32-5.04,0.46-6.68c2.19-2.01,5.64-1.12,8.49-0.28c11.01,3.28,22.74,4.13,34.11,2.46c5.44-0.8,11.04-2.16,16.34-0.71&#xD;&#xA;	c4.9,1.34,8.89,5.29,10.69,10.01C336.55,355.43,317.01,355.09,298.09,358.51z"/>
<path class="st13" d="M356.05,356.84c-19.5-1.42-39.04-1.75-57.96,1.67c-2.21-0.51-4.37-1.23-6.44-2.15&#xD;&#xA;	c-2.21-0.98-4.41-2.28-5.69-4.33c-1.28-2.06-1.32-5.04,0.46-6.68c2.19-2.01,5.64-1.12,8.49-0.28c11.01,3.28,22.74,4.13,34.11,2.46&#xD;&#xA;	c5.44-0.8,11.04-2.16,16.34-0.71C350.27,348.17,354.25,352.11,356.05,356.84z"/>
<path class="st2" d="M361.12,357.23c-1.69-0.14-3.38-0.27-5.07-0.39"/>
<path class="st2" d="M298.09,358.51c-5.49,0.99-10.92,2.3-16.29,3.99"/>
<path class="st2" d="M563.61,354.96c-3.42-2.28-6.85-4.56-10.27-6.85"/>
<path class="st14" d="M548.73,386.15c-2.44,12.42-13.97,21.49-26.23,24.68c-12.25,3.19-25.19,1.59-37.7-0.37&#xD;&#xA;	c-27.25-4.25-71.8-13.31-102.64-21.46c30.05-10.09,62.11-21.43,83.82-28.74c0,0,0.01,0,0.01,0c7.85-2.64,14.34-4.76,18.9-6.1&#xD;&#xA;	c0.7-0.3,1.41-0.62,1.96-1.15c2.16-2.08,0.32-6.08-2.52-7.05c-2.83-0.97-5.92,0.05-8.75,1.01c-10.33,3.5-21.82,6.24-31.92,2.15&#xD;&#xA;	c-4.19-1.7-7.86-4.49-11.97-6.38c-4.11-1.89-9.09-2.8-13.06-0.64c-4.65,2.53-6.4,8.29-10.1,12.07c-3.67,3.74-8.71,5.14-14.04,5.48&#xD;&#xA;	c-0.45-12.29-0.8-27.83-1.05-43.68c4.47,0.1,8.94,0.02,13.41-0.26c17.11-1.1,34.19-5.34,49.25-13.44c0,0,0.01,0,0.01-0.01&#xD;&#xA;	c1.68,3.86,3.87,7.45,6.75,10.58c1.88,2.04,4,3.83,6.25,5.44l-17.57,5.18c-2.09,0.62-2.3,3.5-0.32,4.41l69.57,32.03l15.18-5.51h0&#xD;&#xA;	l0.02-0.01c0.01,0.01,0.02,0.02,0.03,0.03c1.48,1.35,2.89,2.78,4.2,4.31C546.68,366.23,550.64,376.42,548.73,386.15z"/>
<path class="st2" d="M456.11,302.25c0,0,0-0.01-0.01-0.01"/>
<path class="st7" d="M535.01,298.86l-7.3,31.35l-3.63,15.59l-0.86,3.69l-2.42,10.4l-69.57-32.03c-1.98-0.91-1.77-3.79,0.32-4.41&#xD;&#xA;	l17.57-5.18l5.51-1.62l28.58-8.42L535.01,298.86z"/>
<path class="st7" d="M631.96,246.61l-24.63,81.88l-32.41,11.76h0l-13.85,5.02l-0.43,0.16h0l-24.65,8.94l-0.02,0.01h0l-15.18,5.51&#xD;&#xA;	l2.42-10.4l0.86-3.69l3.63-15.59l7.3-31.35l8.03-34.45c0.59-2.54,2.61-4.5,5.16-5.02l80.4-16.46&#xD;&#xA;	C630.75,242.48,632.6,244.5,631.96,246.61z"/>
<path class="st2" d="M409.74,141.56c-0.03,0.03-0.07,0.06-0.1,0.08c0-0.03-0.01-0.05-0.01-0.08&#xD;&#xA;	C409.67,141.56,409.71,141.56,409.74,141.56z"/>
<path class="st2" d="M421.83,110.29c-0.07-2.1-0.29-4.2-0.64-6.26"/>
<path class="st2" d="M370.02,104.03c-0.36,2.06-0.57,4.16-0.64,6.26"/>
<path class="st15" d="M414.11,152.45c-0.56-0.43-1.04-0.92-1.41-1.47c-1.65-2.45-2.52-5.23-2.92-8.15c3.89,0.13,4.99,2.16,5.01,2.75&#xD;&#xA;	C414.87,147.91,414.61,150.2,414.11,152.45z"/>
<path class="st13" d="M503.19,308.23l-28.58,8.42c-4.87-5.44-9.24-11.33-13.02-17.58c-1.47-2.44-2.86-4.94-4.15-7.48&#xD;&#xA;	c-0.08,1.71-0.22,3.42-0.42,5.13c-0.23,1.85-0.53,3.7-0.92,5.52c0,0.01,0,0.01,0,0.02c-15.07,8.1-32.14,12.34-49.25,13.44&#xD;&#xA;	c-4.47,0.29-8.94,0.37-13.41,0.26c-0.45-28.45-0.56-57.92-0.3-71.47c0.32-17.38,1.28-35.12,5.49-51.82&#xD;&#xA;	c1.7-6.76,3.93-13.35,6.86-19.68c3.1-6.7,7.05-13.44,8.63-20.54c0.5-2.25,0.76-4.54,0.68-6.87c-0.02-0.59-1.12-2.62-5.01-2.75&#xD;&#xA;	c-0.05-0.39-0.1-0.79-0.14-1.19c0.03-0.03,0.07-0.05,0.1-0.08c0.72-0.02,1.43,0,2.15,0.09c1.99,0.24,3.98,1.02,5.32,2.53&#xD;&#xA;	c2.29,2.59,2.27,6.81,4.87,9.08c0.34,0.3,0.73,0.56,0.96,0.95c0.23,0.38,0.3,0.83,0.31,1.29c4.84,0.71,10.09,0.88,13.36,1.66&#xD;&#xA;	c6.4,1.52,13.14,2.47,18.66,6.05c7.2,4.67,11.07,13.02,13.66,21.19c2.35,7.43,3.96,15.09,4.79,22.84&#xD;&#xA;	c1.82,17.03-0.1,34.46,3.64,51.18C481.57,276.78,492.2,292.95,503.19,308.23z"/>
<path class="st2" d="M423.36,155.49c0.01,0.13,0.01,0.27,0.01,0.4c0.06,18.25,11.48,27.8,10.7,28.94c-0.93,1.37-4.69,1.35-6.28,1.73&#xD;&#xA;	c-7.6,1.82-14.63,6.04-19.84,11.94c-5.22,5.9-8.61,13.44-9.58,21.31"/>
<path class="st2" d="M380.98,62.3c3.2-1.21,6.6-1.97,10.09-2.17"/>
<path class="st2" d="M400.13,60.13c4.2,0.24,8.27,1.29,12.02,2.97"/>
<path class="st2" d="M382.41,69.35c-1.9,1.8-3.4,3.99-4.46,6.38"/>
<path class="st2" d="M381.68,75.83c0.89-1.51,2.06-2.84,3.59-3.68"/>
<path class="st2" d="M452.49,222.85c-3.65,22.76,6,45.83,4.95,68.73"/>
<path class="st2" d="M222.7,330.29c0,0,2.77,1.22,1.66,4.95"/>
<path class="st2" d="M486.85,353.01c0,0,3.49-1.01,9.3-1.27"/>
<path class="st16" d="M381.57,116.36c0.15-2.62-1.92-4.87-4.53-4.98c-2.62-0.15-4.87,1.92-4.98,4.53c-0.15,2.62,1.92,4.87,4.53,4.98&#xD;&#xA;	C379.21,121.01,381.42,118.98,381.57,116.36z"/>
<path class="st17" d="M383.52,117.31c-0.59-6.31-0.78-12.66-0.57-18.99c0-0.04,0-0.08,0.01-0.12c0.23-7.22,0.97-14.43,2.23-21.54&#xD;&#xA;	c1.82,0.33,3.67,0.54,5.52,0.66c-3.33-4.76-4.76-10.86-3.89-16.6c0.02-0.17,0.05-0.33,0.08-0.49c-1.48-1.82-2.44-4.19-2.83-6.53&#xD;&#xA;	c-0.61-3.67-0.15-7.51,1.3-10.94c0.98-2.33,2.36-4.38,4.02-6.18c-0.38-0.01-0.76,0.01-1.14,0.06c-2.47,0.32-4.7,1.72-6.45,3.5&#xD;&#xA;	c-3.51,3.58-5.26,8.82-4.6,13.79c0.41,3.1,1.74,6.04,3.74,8.44c-11.94,4.52-21.11,15.37-21.8,27.27&#xD;&#xA;	c-0.56,9.69,3.91,19.16,10.23,26.96c0.06,0.08,0.12,0.16,0.19,0.24c0.38,3.74,1.22,7.41,2.49,10.87c1.78,4.86,4.43,9.33,7.94,12.67&#xD;&#xA;	c0.64,0.61,1.3,1.17,1.98,1.69c-0.34,3.22-1.21,6.3-3.02,8.98c-2.82,4.19-10.27,4.69-16.47,5.38c-1.86,0.21-3.61,0.44-5.09,0.79&#xD;&#xA;	c-4.46,1.06-9.1,1.84-13.36,3.44c-1.85,0.69-3.63,1.53-5.3,2.61c-7.19,4.67-11.06,13.01-13.66,21.19&#xD;&#xA;	c-2.35,7.43-3.96,15.09-4.79,22.84c-1.82,17.03,0.1,34.47-3.64,51.18c-4.11,18.39-14.75,34.57-25.75,49.87&#xD;&#xA;	c-7.94,11.06-18.11,22.95-31.72,23.19c-11.15,0.19-22.21-7.75-32.75-4.11c-1.46,0.51-2.93,1.64-3.76,2.93&#xD;&#xA;	c-1.04-0.3-2.3-0.08-3.18,0.6c-1.39,1.09-1.96,2.93-2.1,4.69c-0.3,3.75,1.12,7.61,3.77,10.28c0.29,0.29,0.6,0.57,0.92,0.83&#xD;&#xA;	c-2.7,0.12-5.41,0.11-8.11-0.04c-0.9-0.05-1.85-0.1-2.66,0.31c-1.57,0.81-1.82,3.13-0.89,4.63c0.92,1.51,2.64,2.33,4.33,2.86&#xD;&#xA;	c5.07,1.59,10.45,1.26,15.76,0.51c-1.5,1.01-3.01,2.01-4.51,3.02c-1.73,1.15-3.67,2.71-3.49,4.78c0.17,1.85,2.12,3.13,3.98,3.22&#xD;&#xA;	c1.85,0.09,3.63-0.7,5.34-1.44c4.74-2.06,9.56-3.95,14.41-5.76c1.25-4.86,4.37-9.41,8.19-12.8c5.91-5.26,13.31-8.46,20.18-12.39&#xD;&#xA;	c20.04-11.48,36.02-29.88,44.59-51.32c10.36-25.92,9.81-54.75,15.19-82.14c1.88-9.57,5.05-19.69,11.19-26.92v-0.01&#xD;&#xA;	c2.37-2.79,5.18-5.15,8.52-6.88c3.1-1.6,6.45-2.53,9.87-3.3c4.74-1.06,9.6-1.8,14.1-3.58c5.83-2.3,11.22-7.83,11.95-13.59&#xD;&#xA;	c1.41,0.36,2.86,0.59,4.32,0.68C387.22,139.2,384.5,127.84,383.52,117.31z M232.41,342.51c-3.8,1.34-8.41-2.09-8.21-6.11&#xD;&#xA;	c0.02-0.36,0.06-0.72,0.12-1.09c2.14,0.68,5.05-0.38,7.4-1.2c1.31-0.46,2.74-0.43,4.14-0.05&#xD;&#xA;	C237.16,337.14,235.65,341.36,232.41,342.51z"/>
<path class="st17" d="M354.43,285.4c-1.54,8.21-4.36,16.3-8.48,23.58c-4.42,7.84-10.34,14.74-17.73,19.87&#xD;&#xA;	c-10.11,7.01-22.52,10.5-33.24,16.32c-0.04-0.01-0.07-0.02-0.11-0.03c-2.85-0.85-6.31-1.73-8.5,0.28c-1.6,1.48-1.72,4.04-0.79,6.04&#xD;&#xA;	c-0.98,0.82-1.92,1.69-2.83,2.61c-10.69,10.87-13.99,28.35-8.02,42.38c2.79,6.54,7.52,12.14,13.32,16.24&#xD;&#xA;	c-5.55,0.08-11.06-0.4-16.44-1.8c-12.25-3.19-23.78-12.25-26.22-24.67c-1.91-9.73,2.05-19.92,8.5-27.44&#xD;&#xA;	c1.31-1.52,2.72-2.96,4.2-4.31c11.31-4.17,22.52-8.51,32.93-14.54c6.14-3.55,11.95-7.68,17.34-12.3c2.75-1.32,5.48-2.69,8.18-4.14&#xD;&#xA;	c5.35-2.87,10.61-6.11,14.72-10.58c2.13-2.32,3.87-4.88,5.32-7.61c4.32-8.17,5.93-17.9,6.82-27.24c0.08-0.86,0.18-1.95,0.3-3.25&#xD;&#xA;	c1.04-11.38,3.34-39.06,3.29-67.62c0.69,8.86,3.09,17.82,5,26.56C355.7,250.7,357.62,268.34,354.43,285.4z"/>
<path class="st18" d="M313.84,356.55c-5.3,0.43-10.57,1.08-15.79,2.03c-2.21-0.5-4.37-1.23-6.44-2.15&#xD;&#xA;	c-2.22-0.98-4.42-2.27-5.69-4.33c-0.13-0.2-0.24-0.42-0.34-0.64c-0.93-2-0.81-4.56,0.79-6.04c2.19-2.01,5.65-1.13,8.5-0.28&#xD;&#xA;	c0.04,0.01,0.07,0.02,0.11,0.03c5.79,1.72,11.77,2.77,17.8,3.12c-0.21,2.74,0.15,5.51,1.01,8.12&#xD;&#xA;	C313.8,356.46,313.81,356.5,313.84,356.55z"/>
<path class="st17" d="M631.92,246.68l-2.34,7.78c-16.24,2.9-31.76,9.12-45.06,18.91c-26.99,19.85-42.3,51.51-54.01,83.04l-9.76,3.55&#xD;&#xA;	l2.42-10.4l0.86-3.69l3.63-15.59l7.31-31.35l8.03-34.45c0.59-2.54,2.6-4.5,5.16-5.02l80.4-16.46&#xD;&#xA;	C630.71,242.55,632.56,244.58,631.92,246.68z"/>
<g class="st19">
	<path class="st18" d="M486.81,353.08c-0.55,0.53-1.26,0.84-1.96,1.14c-4.56,1.35-11.06,3.46-18.9,6.1l-0.01,0.01&#xD;&#xA;		c-6.64,2.23-14.26,4.85-22.49,7.69c-5.09-2.37-11.16-3.21-16.82-2.95c-9.91,0.45-19.66,3.39-29.57,2.92&#xD;&#xA;		c-8.07-0.38-15.84-3.01-23.63-5.12c-4.15-1.12-8.33-2.11-12.54-2.95c-13.93-2.78-28.16-4.02-42.35-3.69&#xD;&#xA;		c12.39-0.69,24.94-0.23,37.47,0.68c1.69,0.12,3.38,0.25,5.07,0.39c7.49,0.61,14.96,1.34,22.38,2.05c3.57,0.34,7.34,0.6,10.98,0.36&#xD;&#xA;		c5.33-0.34,10.37-1.73,14.04-5.48c3.7-3.78,5.45-9.54,10.1-12.06c3.98-2.16,8.96-1.25,13.07,0.64c4.11,1.89,7.77,4.67,11.96,6.37&#xD;&#xA;		c10.11,4.1,21.6,1.36,31.93-2.14c2.83-0.96,5.92-1.98,8.75-1.01C487.12,346.99,488.96,351,486.81,353.08z"/>
</g>
<g>
	<path class="st18" d="M479.14,264.89c-2.73-6.78-4.76-13.84-6.03-21.04c-4.07-23.09-1.32-49.57-16.95-67.05&#xD;&#xA;		c-7.98-8.92-20.18-13.82-32.1-13.11c2.51,13.23,10.62,20.24,9.97,21.21c-0.93,1.37-4.7,1.35-6.29,1.73&#xD;&#xA;		c-7.6,1.81-14.62,6.04-19.84,11.94c-2.92,3.31-5.27,7.13-6.95,11.23c0.55-4.07,1.68-8.07,3.35-11.82&#xD;&#xA;		c4.45-9.97,12.61-18.15,15.72-28.61c0.53-1.77,0.9-3.58,1.17-5.4c0.52-3.51,0.67-7.1,0.8-10.69c0.01,0.02,0.03,0.03,0.05,0.05&#xD;&#xA;		c0.34,0.29,0.72,0.56,0.96,0.95c0.23,0.38,0.3,0.83,0.32,1.28c4.84,0.72,10.09,0.89,13.36,1.66c6.4,1.52,13.14,2.47,18.66,6.05&#xD;&#xA;		c7.19,4.67,11.06,13.01,13.66,21.19c2.35,7.43,3.96,15.09,4.79,22.84c1.82,17.03-0.1,34.47,3.64,51.18&#xD;&#xA;		C477.91,260.65,478.49,262.78,479.14,264.89z"/>
</g>
<path class="st1" d="M414.11,152.45c-1.58,7.1-5.53,13.84-8.63,20.54c-2.93,6.33-5.16,12.92-6.86,19.68&#xD;&#xA;	c-6.96-0.98-13.69-3.64-19.34-7.83c-9.09-6.73-15.23-17.28-16.75-28.47c6.2-0.69,13.64-1.19,16.47-5.38&#xD;&#xA;	c1.81-2.68,2.68-5.76,3.02-8.98c4.01,3.03,8.78,4.54,13.59,4.57h0.02c4.29-0.04,8.56-1.25,12.27-3.67c0.6-0.39,1.18-0.81,1.75-1.26&#xD;&#xA;	c0.04,0.4,0.08,0.79,0.14,1.19c0.4,2.92,1.27,5.7,2.92,8.15C413.07,151.53,413.55,152.02,414.11,152.45z"/>
<path class="st1" d="M344.07,160.58c-1.85,0.69-3.63,1.53-5.29,2.61c-7.2,4.67-11.07,13.02-13.66,21.19&#xD;&#xA;	c-2.35,7.43-3.96,15.09-4.79,22.84c-1.82,17.03,0.1,34.46-3.64,51.18c-4.11,18.39-14.76,34.57-25.75,49.87&#xD;&#xA;	c-7.94,11.05-18.11,22.94-31.72,23.18c-11.14,0.2-22.21-7.75-32.75-4.1c-1.47,0.51-2.93,1.63-3.76,2.93&#xD;&#xA;	c-1.04-0.31-2.3-0.08-3.18,0.6c-1.39,1.08-1.96,2.93-2.1,4.69c-0.3,3.75,1.12,7.61,3.78,10.28c0.29,0.29,0.6,0.57,0.91,0.83&#xD;&#xA;	c-2.7,0.12-5.41,0.1-8.11-0.04c-0.9-0.05-1.85-0.1-2.66,0.31c-1.57,0.8-1.82,3.13-0.9,4.63c0.93,1.5,2.65,2.32,4.33,2.85&#xD;&#xA;	c5.07,1.59,10.46,1.26,15.77,0.52c-1.51,1-3.01,2.01-4.52,3.01c-1.73,1.15-3.67,2.71-3.48,4.78c0.16,1.85,2.11,3.13,3.97,3.22&#xD;&#xA;	c1.86,0.09,3.64-0.69,5.34-1.44c8.59-3.74,17.46-6.89,26.27-10.14l0,0c11.3-4.17,22.51-8.52,32.92-14.54&#xD;&#xA;	c6.14-3.55,11.95-7.68,17.34-12.3c0,0,0,0,0,0c11.81-10.12,21.62-22.59,28.58-36.51c2.65-5.29,4.87-10.74,6.76-16.31&#xD;&#xA;	C345.38,256.91,350.07,199.17,344.07,160.58z M232.45,342.44c-3.79,1.34-8.4-2.09-8.21-6.11c0.02-0.36,0.06-0.72,0.12-1.09&#xD;&#xA;	c2.14,0.68,5.05-0.38,7.4-1.2c1.31-0.46,2.74-0.43,4.15-0.05C237.2,337.06,235.69,341.29,232.45,342.44z"/>
<path class="st1" d="M592.81,345.65c-0.93,1.5-2.65,2.32-4.33,2.85c-1.39,0.44-2.81,0.73-4.24,0.91c-0.06-1.02-0.53-1.98-1.43-2.45&#xD;&#xA;	c-0.8-0.41-1.76-0.36-2.66-0.31c-6.29,0.33-12.62-0.04-18.83-1.1c-0.23-0.04-0.45-0.08-0.68-0.12l0.43-0.16l13.85-5.02h0&#xD;&#xA;	c4.75,0.55,9.55,0.71,14.33,0.45c0.9-0.05,1.85-0.1,2.66,0.31C593.49,341.82,593.74,344.14,592.81,345.65z"/>
<path class="st1" d="M583.71,351.59c-0.93,1.5-2.65,2.32-4.33,2.85c-5.07,1.59-10.46,1.26-15.77,0.52c1.51,1,3.01,2.01,4.52,3.01&#xD;&#xA;	c1.73,1.15,3.67,2.71,3.48,4.78c-0.16,1.85-2.11,3.13-3.97,3.22c-1.86,0.09-3.64-0.69-5.34-1.44c-8.59-3.74-17.46-6.89-26.27-10.14&#xD;&#xA;	c-0.01-0.01-0.02-0.02-0.03-0.03l24.65-8.94h0c0.23,0.04,0.45,0.08,0.68,0.12c6.21,1.06,12.54,1.44,18.83,1.1&#xD;&#xA;	c0.9-0.05,1.85-0.1,2.66,0.31c0.9,0.46,1.37,1.42,1.43,2.45C584.28,350.16,584.1,350.95,583.71,351.59z"/>
<path class="st1" d="M426.34,106.8c-0.63,1.45-1.75,2.88-3.47,3.36c-0.33,0.09-0.68,0.13-1.04,0.13c0.07,2.16,0,4.33-0.23,6.48&#xD;&#xA;	c-0.39,3.74-1.23,7.41-2.5,10.88c-1.78,4.85-4.43,9.33-7.94,12.67c-0.46,0.44-0.94,0.86-1.42,1.25c-0.04,0-0.07,0-0.11,0&#xD;&#xA;	c0,0.03,0,0.05,0.01,0.08c-0.57,0.45-1.15,0.87-1.75,1.26c-3.71,2.42-7.98,3.63-12.27,3.67h-0.02c-4.81-0.04-9.58-1.55-13.59-4.57&#xD;&#xA;	c-0.68-0.52-1.35-1.08-1.98-1.68c-3.51-3.34-6.16-7.82-7.94-12.67c-1.27-3.46-2.11-7.14-2.5-10.88v0c-0.22-2.15-0.3-4.32-0.23-6.48&#xD;&#xA;	c-0.35,0.01-0.7-0.03-1.04-0.13c-1.72-0.48-2.85-1.91-3.48-3.36c-0.65-1.51-0.91-3.14-0.75-4.74c0.12-1.15,0.47-2.33,1.35-3.21&#xD;&#xA;	c0.87-0.88,2.35-1.4,3.63-1.02c0.14,0.04,0.27,0.09,0.4,0.16c-0.73-4.93-0.93-13.23,4.14-19.56c1.12-1.39,2.65-2.32,4.32-2.69&#xD;&#xA;	c-2.35,5.33-2.51,11.67-0.08,16.99c1.1,2.39,2.81,4.69,5.28,5.59c-4.55-5.18-5.19-13.02-2.85-19.5c0.37-1.02,0.82-2.04,1.38-2.98&#xD;&#xA;	c8.38,2.14,17.33,1.98,25.62-0.46c0.35-0.1,0.7-0.21,1.06-0.33c2.75-0.9,5.78-0.21,7.83,1.83c6.49,6.47,6.32,15.77,5.53,21.11&#xD;&#xA;	c0.13-0.06,0.26-0.12,0.4-0.16c1.28-0.38,2.76,0.14,3.63,1.02c0.87,0.88,1.23,2.06,1.35,3.21&#xD;&#xA;	C427.25,103.66,426.99,105.29,426.34,106.8z"/>
<path class="st1" d="M486.85,353.01c-0.55,0.53-1.26,0.85-1.96,1.15c-4.56,1.34-11.05,3.46-18.9,6.1c0,0,0,0-0.01,0&#xD;&#xA;	c-21.71,7.31-53.77,18.65-83.82,28.74c-4.28,1.44-8.53,2.85-12.69,4.23c-1.64-2.7-3.06-5.53-4.24-8.46&#xD;&#xA;	c-3.52-8.68-4.98-18.21-4.1-27.53c7.49,0.61,14.96,1.34,22.38,2.05c3.56,0.34,7.34,0.6,10.98,0.36c5.33-0.34,10.37-1.74,14.04-5.48&#xD;&#xA;	c3.71-3.78,5.45-9.54,10.1-12.07c3.97-2.16,8.95-1.25,13.06,0.64c4.11,1.89,7.78,4.68,11.97,6.38c10.1,4.1,21.6,1.35,31.92-2.15&#xD;&#xA;	c2.84-0.96,5.92-1.98,8.75-1.01C487.16,346.92,489.01,350.93,486.85,353.01z"/>
<path class="st1" d="M421.79,116.53c-0.06,0.08-0.13,0.16-0.19,0.24c0.22-2.15,0.3-4.32,0.23-6.48c0.35,0.01,0.7-0.03,1.04-0.13&#xD;&#xA;	c1.72-0.48,2.85-1.91,3.47-3.36c0.65-1.51,0.91-3.14,0.75-4.74c-0.12-1.15-0.47-2.33-1.35-3.21c-0.87-0.88-2.35-1.4-3.63-1.02&#xD;&#xA;	c-0.14,0.04-0.27,0.09-0.4,0.16c0.79-5.34,0.96-14.64-5.53-21.11c-2.05-2.04-5.08-2.74-7.83-1.83c-0.35,0.12-0.7,0.22-1.06,0.33&#xD;&#xA;	c-8.29,2.44-17.25,2.6-25.62,0.46c-0.56,0.94-1.01,1.96-1.38,2.98c-2.33,6.49-1.7,14.32,2.85,19.5c-2.48-0.89-4.19-3.19-5.28-5.59&#xD;&#xA;	c-2.43-5.32-2.27-11.66,0.08-16.99c-1.67,0.37-3.21,1.3-4.32,2.69c-5.07,6.34-4.87,14.63-4.14,19.56c-0.12-0.06-0.26-0.12-0.4-0.16&#xD;&#xA;	c-1.28-0.38-2.76,0.14-3.63,1.02c-0.87,0.88-1.23,2.06-1.35,3.21c-0.16,1.6,0.09,3.23,0.75,4.74c0.63,1.45,1.75,2.88,3.48,3.36&#xD;&#xA;	c0.33,0.09,0.68,0.13,1.04,0.13c-0.07,2.16,0,4.33,0.23,6.48c-0.06-0.08-0.13-0.15-0.19-0.23c-6.32-7.8-10.78-17.27-10.22-26.97&#xD;&#xA;	c0.68-11.89,9.86-22.74,21.79-27.27c-1.99-2.4-3.33-5.35-3.74-8.44c-0.66-4.98,1.09-10.22,4.61-13.8c1.74-1.78,3.98-3.18,6.45-3.49&#xD;&#xA;	c1.89-0.24,3.81,0.17,5.57,0.89c4.62,1.87,8.29,5.94,9.69,10.72c2.96-2.4,7.65-0.03,9.4,3.36c1.87,3.61,1.36,8.13-0.79,11.55&#xD;&#xA;	c10.98,4.91,19.21,15.22,19.86,26.47C432.57,99.26,428.11,108.73,421.79,116.53z"/>
<path class="st1" d="M235.91,333.98c2.71,0.72,5.35,2.7,6.93,4.87"/>
<path class="st1" d="M237.73,344.56c-5.13,1.19-10.37,1.91-15.62,2.13"/>
<path class="st1" d="M240.82,348.12c-3.42,2.28-6.85,4.56-10.27,6.85"/>
<path class="st1" d="M393.44,315.96c-15.23-0.35-30.43-2.83-45.25-6.48c-4-0.99-8.09-2.11-11.57-4.25&#xD;&#xA;	c4.32-8.17,5.93-17.9,6.82-27.24c0.08-0.85,0.18-1.95,0.3-3.25c1.63-17.82,6.32-75.56,0.32-114.15c4.27-1.59,8.9-2.38,13.36-3.43&#xD;&#xA;	c1.48-0.35,3.23-0.58,5.09-0.79c1.52,11.19,7.66,21.74,16.75,28.47c5.65,4.19,12.38,6.85,19.34,7.83&#xD;&#xA;	c-4.2,16.7-5.16,34.44-5.49,51.82C392.88,258.04,392.99,287.51,393.44,315.96z"/>
<path class="st1" d="M393.44,315.96c-15.23-0.35-30.43-2.83-45.25-6.48c-4-0.99-8.09-2.11-11.57-4.25c-1.45,2.74-3.19,5.3-5.32,7.61&#xD;&#xA;	c-4.11,4.47-9.37,7.71-14.72,10.59c-2.69,1.45-5.42,2.82-8.18,4.14c0,0,0,0,0,0c-5.39,4.62-11.2,8.75-17.34,12.3&#xD;&#xA;	c-10.41,6.02-21.62,10.37-32.92,14.54l0,0c-1.48,1.35-2.89,2.78-4.2,4.31c-6.46,7.52-10.42,17.71-8.51,27.43&#xD;&#xA;	c2.44,12.42,13.97,21.49,26.23,24.68c12.25,3.19,25.19,1.59,37.7-0.37c11.46-1.79,34.32-8.74,60.11-17.24&#xD;&#xA;	c-1.64-2.7-3.06-5.53-4.24-8.46c-3.52-8.68-4.98-18.21-4.1-27.53c7.49,0.61,14.96,1.34,22.38,2.05c3.56,0.34,7.34,0.6,10.98,0.36&#xD;&#xA;	C394.03,347.35,393.68,331.81,393.44,315.96z M298.09,358.51c-2.21-0.51-4.37-1.23-6.44-2.15c-2.21-0.98-4.41-2.28-5.69-4.33&#xD;&#xA;	c-1.28-2.06-1.32-5.04,0.46-6.68c2.19-2.01,5.64-1.12,8.49-0.28c11.01,3.28,22.74,4.13,34.11,2.46c5.44-0.8,11.04-2.16,16.34-0.71&#xD;&#xA;	c4.9,1.34,8.89,5.29,10.69,10.01C336.55,355.43,317.01,355.09,298.09,358.51z"/>
<path class="st1" d="M356.05,356.84c-19.5-1.42-39.04-1.75-57.96,1.67c-2.21-0.51-4.37-1.23-6.44-2.15&#xD;&#xA;	c-2.21-0.98-4.41-2.28-5.69-4.33c-1.28-2.06-1.32-5.04,0.46-6.68c2.19-2.01,5.64-1.12,8.49-0.28c11.01,3.28,22.74,4.13,34.11,2.46&#xD;&#xA;	c5.44-0.8,11.04-2.16,16.34-0.71C350.27,348.17,354.25,352.11,356.05,356.84z"/>
<path class="st1" d="M361.12,357.23c-1.69-0.14-3.38-0.27-5.07-0.39"/>
<path class="st1" d="M298.09,358.51c-5.49,0.99-10.92,2.3-16.29,3.99"/>
<path class="st1" d="M563.61,354.96c-3.42-2.28-6.85-4.56-10.27-6.85"/>
<path class="st1" d="M548.73,386.15c-2.44,12.42-13.97,21.49-26.23,24.68c-12.25,3.19-25.19,1.59-37.7-0.37&#xD;&#xA;	c-27.25-4.25-71.8-13.31-102.64-21.46c30.05-10.09,62.11-21.43,83.82-28.74c0,0,0.01,0,0.01,0c7.85-2.64,14.34-4.76,18.9-6.1&#xD;&#xA;	c0.7-0.3,1.41-0.62,1.96-1.15c2.16-2.08,0.32-6.08-2.52-7.05c-2.83-0.97-5.92,0.05-8.75,1.01c-10.33,3.5-21.82,6.24-31.92,2.15&#xD;&#xA;	c-4.19-1.7-7.86-4.49-11.97-6.38c-4.11-1.89-9.09-2.8-13.06-0.64c-4.65,2.53-6.4,8.29-10.1,12.07c-3.67,3.74-8.71,5.14-14.04,5.48&#xD;&#xA;	c-0.45-12.29-0.8-27.83-1.05-43.68c4.47,0.1,8.94,0.02,13.41-0.26c17.11-1.1,34.19-5.34,49.25-13.44c0,0,0.01,0,0.01-0.01&#xD;&#xA;	c1.68,3.86,3.87,7.45,6.75,10.58c1.88,2.04,4,3.83,6.25,5.44l-17.57,5.18c-2.09,0.62-2.3,3.5-0.32,4.41l69.57,32.03l15.18-5.51h0&#xD;&#xA;	l0.02-0.01c0.01,0.01,0.02,0.02,0.03,0.03c1.48,1.35,2.89,2.78,4.2,4.31C546.68,366.23,550.64,376.42,548.73,386.15z"/>
<path class="st1" d="M456.11,302.25c0,0,0-0.01-0.01-0.01"/>
<path class="st1" d="M535.01,298.86l-7.3,31.35l-3.63,15.59l-0.86,3.69l-2.42,10.4l-69.57-32.03c-1.98-0.91-1.77-3.79,0.32-4.41&#xD;&#xA;	l17.57-5.18l5.51-1.62l28.58-8.42L535.01,298.86z"/>
<path class="st1" d="M631.96,246.61l-24.63,81.88l-32.41,11.76h0l-13.85,5.02l-0.43,0.16h0l-24.65,8.94l-0.02,0.01h0l-15.18,5.51&#xD;&#xA;	l2.42-10.4l0.86-3.69l3.63-15.59l7.3-31.35l8.03-34.45c0.59-2.54,2.61-4.5,5.16-5.02l80.4-16.46&#xD;&#xA;	C630.75,242.48,632.6,244.5,631.96,246.61z"/>
<path class="st1" d="M409.74,141.56c-0.03,0.03-0.07,0.06-0.1,0.08c0-0.03-0.01-0.05-0.01-0.08&#xD;&#xA;	C409.67,141.56,409.71,141.56,409.74,141.56z"/>
<path class="st1" d="M421.83,110.29c-0.07-2.1-0.29-4.2-0.64-6.26"/>
<path class="st1" d="M370.02,104.03c-0.36,2.06-0.57,4.16-0.64,6.26"/>
<path class="st1" d="M414.11,152.45c-0.56-0.43-1.04-0.92-1.41-1.47c-1.65-2.45-2.52-5.23-2.92-8.15c3.89,0.13,4.99,2.16,5.01,2.75&#xD;&#xA;	C414.87,147.91,414.61,150.2,414.11,152.45z"/>
<path class="st1" d="M503.19,308.23l-28.58,8.42c-4.87-5.44-9.24-11.33-13.02-17.58c-1.47-2.44-2.86-4.94-4.15-7.48&#xD;&#xA;	c-0.08,1.71-0.22,3.42-0.42,5.13c-0.23,1.85-0.53,3.7-0.92,5.52c0,0.01,0,0.01,0,0.02c-15.07,8.1-32.14,12.34-49.25,13.44&#xD;&#xA;	c-4.47,0.29-8.94,0.37-13.41,0.26c-0.45-28.45-0.56-57.92-0.3-71.47c0.32-17.38,1.28-35.12,5.49-51.82&#xD;&#xA;	c1.7-6.76,3.93-13.35,6.86-19.68c3.1-6.7,7.05-13.44,8.63-20.54c0.5-2.25,0.76-4.54,0.68-6.87c-0.02-0.59-1.12-2.62-5.01-2.75&#xD;&#xA;	c-0.05-0.39-0.1-0.79-0.14-1.19c0.03-0.03,0.07-0.05,0.1-0.08c0.72-0.02,1.43,0,2.15,0.09c1.99,0.24,3.98,1.02,5.32,2.53&#xD;&#xA;	c2.29,2.59,2.27,6.81,4.87,9.08c0.34,0.3,0.73,0.56,0.96,0.95c0.23,0.38,0.3,0.83,0.31,1.29c4.84,0.71,10.09,0.88,13.36,1.66&#xD;&#xA;	c6.4,1.52,13.14,2.47,18.66,6.05c7.2,4.67,11.07,13.02,13.66,21.19c2.35,7.43,3.96,15.09,4.79,22.84&#xD;&#xA;	c1.82,17.03-0.1,34.46,3.64,51.18C481.57,276.78,492.2,292.95,503.19,308.23z"/>
<path class="st1" d="M423.36,155.49c0.01,0.13,0.01,0.27,0.01,0.4c0.06,18.25,11.48,27.8,10.7,28.94c-0.93,1.37-4.69,1.35-6.28,1.73&#xD;&#xA;	c-7.6,1.82-14.63,6.04-19.84,11.94c-5.22,5.9-8.61,13.44-9.58,21.31"/>
<path class="st1" d="M380.98,62.3c3.2-1.21,6.6-1.97,10.09-2.17"/>
<path class="st1" d="M400.13,60.13c4.2,0.24,8.27,1.29,12.02,2.97"/>
<path class="st1" d="M382.41,69.35c-1.9,1.8-3.4,3.99-4.46,6.38"/>
<path class="st1" d="M381.68,75.83c0.89-1.51,2.06-2.84,3.59-3.68"/>
<path class="st1" d="M452.49,222.85c-3.65,22.76,6,45.83,4.95,68.73"/>
<path class="st1" d="M222.7,330.29c0,0,2.77,1.22,1.66,4.95"/>
<path class="st1" d="M486.85,353.01c0,0,3.49-1.01,9.3-1.27"/>
<path class="st1" d="M391.44,112.64c-0.78,0.94-0.92,2.33-0.47,3.46c0.45,1.14,1.44,2.01,2.58,2.47c1.45,0.58,3.21,0.48,4.48-0.43&#xD;&#xA;	c1.77-1.26,2.21-4.02,0.93-5.77"/>
<path class="st1" d="M384.82,127.45c2.83,2.01,6.31,2.99,9.77,3.18c3.93,0.21,8.11-0.65,11-3.33"/>
<path class="st1" d="M378.72,102.98c2.73-1.65,6.57-1.18,8.81,1.09"/>
<path class="st1" d="M411.53,102.98c-2.73-1.65-6.57-1.18-8.81,1.09"/>
<path class="st16" d="M418.47,116.36c0.15-2.62-1.92-4.87-4.53-4.98c-2.62-0.15-4.87,1.92-4.98,4.53c-0.15,2.62,1.92,4.87,4.53,4.98&#xD;&#xA;	C416.12,121.01,418.33,118.98,418.47,116.36z"/>
<path class="st13" d="M583.37,219.61c0,0,7.08-1.3,13.99-2.85c8.27,7.93,21.11,13.01,35.54,13.01c24.95,0,45.17-15.21,45.17-33.98&#xD;&#xA;	c0-18.76-20.22-33.97-45.17-33.97c-24.94,0-45.16,15.21-45.16,33.97c0,4.38,1.1,8.57,3.11,12.42L583.37,219.61z"/>
<path class="st18" d="M616.51,223.47c4.87,2.9,10.54,5.06,16.73,6.26c-0.12,0.01-0.24,0.01-0.36,0.01c-5.78,0-11.3-0.81-16.37-2.3&#xD;&#xA;	c-6.61-1.93-12.47-5.01-17.14-8.91c-0.7-0.58-1.38-1.18-2.02-1.8c-6.92,1.55-13.99,2.85-13.99,2.85l7.48-11.4&#xD;&#xA;	c-2.01-3.85-3.11-8.04-3.11-12.42c0-5.05,1.46-9.83,4.08-14.14c1.93-3.17,4.5-6.08,7.56-8.64c4.68-3.89,10.53-6.96,17.14-8.9&#xD;&#xA;	c5.07-1.48,10.6-2.3,16.37-2.3c3.89,0,7.67,0.37,11.28,1.07c-10.44,0.06-20.04,2.79-27.65,7.32c-10.44,6.22-17.14,15.84-17.14,26.64&#xD;&#xA;	C599.36,207.62,606.07,217.25,616.51,223.47z"/>
<path class="st1" d="M583.37,219.61c0,0,7.08-1.3,13.99-2.85c8.27,7.93,21.11,13.01,35.54,13.01c24.95,0,45.17-15.21,45.17-33.98&#xD;&#xA;	c0-18.76-20.22-33.97-45.17-33.97c-24.94,0-45.16,15.21-45.16,33.97c0,4.38,1.1,8.57,3.11,12.42L583.37,219.61z"/>
<path class="st13" d="M557.43,247.76c0,0-4.43-0.81-8.75-1.79c-5.17,4.96-13.21,8.14-22.23,8.14c-15.61,0-28.26-9.52-28.26-21.26&#xD;&#xA;	c0-11.74,12.65-21.25,28.26-21.25c15.61,0,28.25,9.52,28.25,21.25c0,2.74-0.69,5.36-1.95,7.77L557.43,247.76z"/>
<path class="st18" d="M536.7,250.18c-3.05,1.81-6.6,3.17-10.47,3.92c0.08,0,0.15,0,0.23,0c3.61,0,7.07-0.51,10.24-1.44&#xD;&#xA;	c4.14-1.21,7.8-3.13,10.73-5.57c0.44-0.36,0.86-0.74,1.27-1.13c4.33,0.97,8.75,1.79,8.75,1.79l-4.68-7.13&#xD;&#xA;	c1.26-2.41,1.95-5.03,1.95-7.77c0-3.16-0.92-6.15-2.55-8.85c-1.21-1.98-2.81-3.8-4.73-5.4c-2.93-2.43-6.59-4.36-10.73-5.57&#xD;&#xA;	c-3.17-0.93-6.63-1.44-10.24-1.44c-2.44,0-4.8,0.23-7.06,0.67c6.53,0.04,12.53,1.75,17.3,4.58c6.53,3.89,10.73,9.91,10.73,16.67&#xD;&#xA;	C547.42,240.27,543.23,246.29,536.7,250.18z"/>
<path class="st1" d="M557.43,247.76c0,0-4.43-0.81-8.75-1.79c-5.17,4.96-13.21,8.14-22.23,8.14c-15.61,0-28.26-9.52-28.26-21.26&#xD;&#xA;	c0-11.74,12.65-21.25,28.26-21.25c15.61,0,28.25,9.52,28.25,21.25c0,2.74-0.69,5.36-1.95,7.77L557.43,247.76z"/>
<path class="st20" d="M286.01,155.29c1.77-4.79,1.85-10.05,0.21-14.89c-1.38-3.89-4.27-7.68-8.4-8.3c-1.22-0.33-2.52,0.02-3.4,0.91&#xD;&#xA;	c-1.55,1.68,0.25,4.65,2.62,4.86c2.37,0.21,4.27-1.56,5.57-3.43c3.04-4.47,3.55-10.19,1.35-15.12c-1.18-2.68-3.16-4.94-5.66-6.47"/>
<path class="st21" d="M265.43,91.48c4.87,5.03,12.02,7.13,18.83,5.54c1.73-0.4,3.33-1.21,4.67-2.37c2.51-2.29,3.04-6.14,2.54-9.5&#xD;&#xA;	c-0.5-3.36-2.44-7.45-5.87-8.57c-3.42-1.11-6.49,0.34-9.4,1.96c1.15-7-0.54-14.17-4.68-19.93c-0.69-1.24-1.91-2.1-3.3-2.34&#xD;&#xA;	c-2.18-0.14-3.59,2.33-4.33,4.4c-2.99,9.48-2.74,19.69,0.7,29.02L265.43,91.48z"/>
<path class="st20" d="M260.9,86.04c-2.49-4.62-4.57-9.44-6.22-14.42c-1.17-3.28-2.04-6.78-1.28-10.12c0.06-0.24,0.21-0.46,0.42-0.59&#xD;&#xA;	c0.22-0.03,0.44,0.26,0.28,0.42"/>
<ellipse class="st22" cx="253.85" cy="60.82" rx="1.2" ry="1.2" transform="matrix(0.3356 -0.942 0.942 0.3356 111.3733 279.5391)"/>
<path class="st21" d="M263.41,92.99c3.35,6.11,3.25,13.53-0.27,19.54c-0.87,1.57-2.14,2.87-3.68,3.78c-2.94,1.71-6.76,1.1-9.83-0.42&#xD;&#xA;	c-3.07-1.52-6.36-4.5-6.44-8.13s2.28-6.09,4.66-8.32c-7.02-1-13.36-4.75-17.63-10.42c-0.94-1.09-1.4-2.52-1.25-3.95&#xD;&#xA;	c0.55-2.14,3.31-2.75,5.53-2.7c9.94-0.08,19.62,3.18,27.49,9.26L263.41,92.99z"/>
<path class="st20" d="M259.58,87.06c-3.68-3.77-7.67-7.21-11.93-10.3c-2.77-2.05-5.8-3.98-9.21-4.24c-0.25-0.04-0.5,0.02-0.7,0.18&#xD;&#xA;	c-0.19,0.25,0.11,0.57,0.28,0.42"/>
<ellipse class="st22" cx="237.57" cy="72.85" rx="1.2" ry="1.2" transform="matrix(0.3356 -0.942 0.942 0.3356 89.2191 272.1962)"/>
<ellipse class="st6" cx="254.45" cy="107.1" rx="4.8" ry="4.8" transform="matrix(0.3356 -0.942 0.942 0.3356 68.1713 310.8595)"/>
<circle class="st6" cx="244.13" cy="90.79" r="2.9"/>
<ellipse class="st6" cx="281.49" cy="87.22" rx="4.8" ry="4.8" transform="matrix(0.3356 -0.942 0.942 0.3356 104.8626 323.1227)"/>
<circle class="st6" cx="269.14" cy="72.42" r="2.9"/>
<path class="st22" d="M267.22,90.63c-1.72-2.31-3.78-3.68-5.3-3.59c0.41-0.85,0.32-1.86-0.23-2.63c-0.8-1.04-2.29-1.24-3.34-0.45&#xD;&#xA;	c-1.05,0.71-1.34,2.14-0.63,3.19c0.03,0.04,0.06,0.08,0.09,0.12c0.53,0.79,1.49,1.17,2.42,0.97c-0.5,1.41,0.2,3.89,1.83,6.17&#xD;&#xA;	c1.63,2.28,3.66,3.43,5.12,3.52c0.49,0.9,1.03,1.76,1.62,2.6c1.69,2.41,3.62,3.84,4.29,3.44c0.67-0.4-0.29-2.76-2.02-5.07&#xD;&#xA;	c-0.56-0.87-1.25-1.65-2.04-2.32C269.44,95.14,268.79,92.78,267.22,90.63z"/>
</svg>